<?xml version="1.0" encoding="UTF-8"?>
<svg version="1.1" xmlns="http://www.w3.org/2000/svg" width="1183" height="912">
<path d="M0 0 C390.39 0 780.78 0 1183 0 C1183 300.96 1183 601.92 1183 912 C792.61 912 402.22 912 0 912 C0 611.04 0 310.08 0 0 Z " fill="#023DAF" transform="translate(0,0)"/>
<path d="M0 0 C0.886875 0.70511719 1.77375 1.41023438 2.6875 2.13671875 C3.595 2.85214844 4.5025 3.56757813 5.4375 4.3046875 C40.31205021 32.29349556 72.22202116 70.47846302 78.3671875 116.34375 C80.56245076 142.33887957 76.38205581 168.92802295 59.36816406 189.75146484 C56.27343279 193.34461074 53.0022604 196.74707671 49.6875 200.13671875 C49.0584375 200.81605469 48.429375 201.49539063 47.78125 202.1953125 C24.11823791 227.25354936 -14.67661949 235.68329621 -47.3125 240.13671875 C-48.98022461 240.38965698 -48.98022461 240.38965698 -50.68164062 240.64770508 C-65.61400441 242.65883503 -80.84100051 242.33544125 -95.875 242.32421875 C-97.55767975 242.32480789 -97.55767975 242.32480789 -99.27435303 242.32540894 C-116.54937318 242.31818963 -133.62692389 241.69983519 -150.84912109 240.37597656 C-157.64677367 239.90637981 -164.45636454 239.69428605 -171.26611328 239.47875977 C-173.09937011 239.41646771 -174.93214023 239.33636006 -176.76367188 239.23535156 C-179.30317179 239.09350064 -179.30317179 239.09350064 -181.79882812 239.29589844 C-184.37086036 239.339655 -185.97863949 239.23631775 -188.3125 238.13671875 C-190.95423002 234.57255576 -192.38866393 230.64491029 -193.9375 226.51171875 C-194.86184389 224.22467896 -195.78762256 221.93821853 -196.71484375 219.65234375 C-197.15425293 218.53666016 -197.59366211 217.42097656 -198.04638672 216.27148438 C-199.69784029 212.18265601 -201.56254337 208.22104612 -203.5 204.26171875 C-206.3125 198.47863912 -206.3125 198.47863912 -206.3125 195.13671875 C-187.54584408 194.80636462 -169.01350236 195.73474948 -150.3125 197.13671875 C-151.09560547 195.54923828 -151.09560547 195.54923828 -151.89453125 193.9296875 C-167.23962659 162.42533951 -179.19046535 129.47749767 -186.3125 95.13671875 C-186.57716064 93.92556396 -186.57716064 93.92556396 -186.84716797 92.68994141 C-191.68483437 69.95914218 -192.09377813 42.49023655 -185.3125 20.13671875 C-184.7865625 18.39261719 -184.7865625 18.39261719 -184.25 16.61328125 C-177.01660476 -4.13249817 -163.61440275 -21.80263871 -143.81835938 -31.84667969 C-140.7015687 -33.32416146 -137.52764833 -34.61719863 -134.3125 -35.86328125 C-133.23484375 -36.29769531 -132.1571875 -36.73210937 -131.046875 -37.1796875 C-86.43347853 -52.06811167 -34.57228325 -26.74550246 0 0 Z " fill="#FBFDFE" transform="translate(753.3125,273.86328125)"/>
<path d="M0 0 C24.73504135 48.19434991 48.35196687 102.99689435 50 158 C50.03867187 158.95737061 50.03867187 158.95737061 50.078125 159.93408203 C51.12814248 188.17298975 45.66259693 217.61373999 26.04296875 238.93359375 C22.11102012 243.00610122 17.92084974 246.20098455 13 249 C11.58074219 249.81210937 11.58074219 249.81210937 10.1328125 250.640625 C3.29552949 254.29901539 -3.41651749 256.47009569 -11 258 C-12.13888672 258.27650391 -12.13888672 258.27650391 -13.30078125 258.55859375 C-44.44021726 263.65086042 -76.81407178 249.65868525 -101.7265625 232.125 C-119.44673074 219.29897346 -135.09438346 204.70997201 -148 187 C-148.39912598 186.45633789 -148.79825195 185.91267578 -149.20947266 185.35253906 C-168.10936343 159.4206741 -181.69793433 127.80344158 -177.5 95.10546875 C-172.66556619 68.4336777 -157.8510571 48.01767959 -135.94140625 32.6328125 C-104.90225267 11.52405741 -66.58277183 4.857269 -30 1 C-28.74960937 0.86722656 -27.49921875 0.73445313 -26.2109375 0.59765625 C-17.48456097 -0.19269795 -8.75314233 -0.09434525 0 0 Z " fill="#FBFDFE" transform="translate(530,469)"/>
<path d="M0 0 C4.98224501 3.31767487 9.80395168 6.83474281 14.56835938 10.45654297 C15.509375 11.16552734 16.45039062 11.87451172 17.41992188 12.60498047 C24.14581998 17.83623455 30.36550671 23.62480115 36.56835938 29.45654297 C37.20515625 30.03919922 37.84195313 30.62185547 38.49804688 31.22216797 C57.6393458 49.35603011 73.04998582 75.60863618 74.81445312 102.15966797 C75.11359034 118.41865518 70.82063496 132.33595114 59.73242188 144.40576172 C54.7111149 149.48575106 48.76650819 152.99694169 42.56835938 156.45654297 C41.74980469 156.93478516 40.93125 157.41302734 40.08789062 157.90576172 C14.07175234 172.10045335 -18.25286385 174.69272192 -47.24414062 174.51904297 C-48.72656097 174.51401121 -50.20898299 174.50945131 -51.69140625 174.50537109 C-55.27152013 174.49451367 -58.85156905 174.47734431 -62.43164062 174.45654297 C-121.22911274 59.7454589 -121.22911274 59.7454589 -104.68554688 5.73388672 C-100.29409725 -5.74407662 -94.37667402 -13.78317802 -83.30664062 -19.54345703 C-56.09724656 -29.86907324 -22.73572884 -14.43125278 0 0 Z " fill="#033DAE" transform="translate(714.431640625,298.54345703125)"/>
<path d="M0 0 C11.29141324 26.8617339 22.12146221 53.75989164 27.53271484 82.52099609 C27.97534968 84.8692271 28.44565454 87.20997014 28.92578125 89.55078125 C33.6106462 112.74997518 35.93310343 140.79437582 22.3125 161.4375 C18.10396654 166.68450275 11.54955816 169.75483685 5 171 C-19.85190683 173.21632502 -43.21008299 159.95272094 -61.72216797 144.56884766 C-65.27620143 141.50828096 -68.64551385 138.27857133 -72 135 C-72.92167969 134.14019531 -73.84335937 133.28039062 -74.79296875 132.39453125 C-93.59527639 114.44084681 -109.4892189 88.95776153 -110.4375 62.4375 C-110.03773562 48.02860115 -102.98594964 37.18705123 -92.90234375 27.421875 C-87.72193297 23.09905578 -81.99539895 20.04560791 -76 17 C-75.11828125 16.53980469 -74.2365625 16.07960938 -73.328125 15.60546875 C-51.32928648 4.8451673 -24.37527561 -0.333316 0 0 Z " fill="#033DAE" transform="translate(505,514)"/>
<path d="M0 0 C6.72525156 -0.25397215 13.44926505 -0.42882941 20.17822266 -0.54931641 C22.46580199 -0.59954658 24.75306119 -0.66774792 27.03955078 -0.75439453 C30.33185657 -0.87601382 33.61991743 -0.93246228 36.9140625 -0.9765625 C38.44252304 -1.05398178 38.44252304 -1.05398178 40.00186157 -1.13296509 C42.97436019 -1.13530247 45.20381578 -1.01922829 48 0 C50.74576001 3.00696073 52.32818271 6.31393188 54 10 C54.95422852 11.63787476 54.95422852 11.63787476 55.92773438 13.30883789 C56.47751953 14.27039795 57.02730469 15.23195801 57.59375 16.22265625 C58.22442383 17.32536865 58.85509766 18.42808105 59.50488281 19.56420898 C60.17001577 20.73025243 60.83505248 21.89635079 61.5 23.0625 C62.017901 23.96949142 62.017901 23.96949142 62.54626465 24.89480591 C68.07940374 34.58603599 73.55078107 44.3107707 78.99023438 54.05493164 C82.62323063 60.55818135 86.29362578 67.0383142 90 73.5 C94.96340541 82.15471575 99.85162154 90.84989278 104.71655273 99.56030273 C108.10550558 105.62575018 111.51512515 111.67865315 114.94775391 117.71948242 C121.59689756 129.42635842 128.04151132 141.23490984 134.42675781 153.08740234 C136.91403481 157.69218425 139.42639059 162.28318559 141.9375 166.875 C148.15510247 178.2568309 154.30571059 189.67439621 160.44042969 201.10107422 C161.84252759 203.70729065 163.25150744 206.3095978 164.6640625 208.91015625 C165.40106538 210.27342468 166.13804678 211.63670472 166.875 213 C167.49117187 214.134375 168.10734375 215.26875 168.7421875 216.4375 C170 219 170 219 170 221 C168.84886719 221.04898438 167.69773437 221.09796875 166.51171875 221.1484375 C157.13012135 221.5789867 147.82399543 222.22422527 138.49682617 223.33935547 C137.03827527 223.50850453 135.5777774 223.66179756 134.11572266 223.79736328 C132.68862362 223.93404597 131.26523337 224.11592799 129.84912109 224.33935547 C127.76171875 224.55859375 127.76171875 224.55859375 124 224 C121.66082868 221.69557694 120.41656588 218.93394679 119 216 C118.03054839 214.17416021 117.06045827 212.34865935 116.08984375 210.5234375 C115.03653601 208.47525565 113.98587707 206.42571002 112.9375 204.375 C107.33127965 193.5072398 101.57053844 182.7386276 95.66894531 172.02880859 C94.15961844 169.28967617 92.65329071 166.54891317 91.14784241 163.80764771 C83.58717568 150.04383354 75.95458865 136.32378956 68.20703125 122.6640625 C64.80449413 116.66278663 61.43119255 110.64532416 58.0625 104.625 C57.48242188 103.58859375 56.90234375 102.5521875 56.3046875 101.484375 C53.34292478 96.19129129 50.38365896 90.89681804 47.42578125 85.6015625 C41.51411994 75.02399537 35.57086045 64.46707783 29.54077148 53.95654297 C25.02473751 46.07311357 20.59504059 38.14233539 16.17138672 30.20678711 C11.94159459 22.63516342 7.6254262 15.11817449 3.19897461 7.65966797 C0 2.21478586 0 2.21478586 0 0 Z " fill="#FBFDFE" transform="translate(353,234)"/>
<path d="M0 0 C6.93585027 -0.38237061 13.86896757 -0.64376646 20.81298828 -0.82397461 C23.17079152 -0.8991205 25.52790218 -1.00128269 27.88330078 -1.1315918 C46.72368432 -2.14729958 46.72368432 -2.14729958 51.92687988 1.26287842 C55.22244483 4.61317537 57.12675451 8.59372657 59.00479126 12.85598755 C60.65868488 16.41902752 62.82722039 19.63725443 64.95703125 22.9296875 C65.79307023 24.27193546 66.62721079 25.61536771 67.45947266 26.95996094 C71.72114736 33.77822881 76.21219447 40.44596491 80.6875 47.125 C81.65842685 48.57727044 82.62929184 50.02958224 83.60009766 51.48193359 C95.89745866 69.86415063 108.40251892 88.09674022 121.06542969 106.22900391 C122.93375281 108.90511034 124.79914904 111.58323553 126.6640625 114.26171875 C133.34926846 123.85165819 140.12115047 133.37264105 146.984375 142.8359375 C149.67400225 146.54477407 152.34191425 150.26851891 155 154 C158.78045624 159.29973384 162.57048328 164.59250588 166.375 169.875 C166.91672852 170.62724854 167.45845703 171.37949707 168.01660156 172.15454102 C172.35680868 178.15866571 176.79171377 184.08810779 181.30615234 189.96240234 C183.33224278 192.62575883 184.93373682 194.80121047 186 198 C178.55033012 198.48531542 171.10476519 198.81577867 163.64282227 199.04370117 C161.11100105 199.13875138 158.58020955 199.2680633 156.05200195 199.43334961 C135.62934042 200.73418173 135.62934042 200.73418173 129.62362671 196.20974731 C125.57255634 191.7890376 122.86848162 186.81465518 120.27981567 181.44297791 C118.20106861 177.47495872 115.46278955 174.06129061 112.6875 170.5625 C108.62041189 165.22954208 104.81058862 159.80042831 101.140625 154.18359375 C98.62647086 150.44447764 95.97447804 146.82198073 93.3125 143.1875 C63.46199393 102.19703536 35.3806214 59.2885623 9 16 C8.5270752 15.22462891 8.05415039 14.44925781 7.56689453 13.65039062 C6.26974484 11.51932609 4.97709271 9.38564446 3.6875 7.25 C3.30803223 6.62351562 2.92856445 5.99703125 2.53759766 5.3515625 C0 1.11941486 0 1.11941486 0 0 Z " fill="#FBFDFE" transform="translate(636,530)"/>
<path d="M0 0 C0.66 0 1.32 0 2 0 C2.51046875 1.17755859 2.51046875 1.17755859 3.03125 2.37890625 C8.05320028 13.26425062 13.78827324 18.82155554 25 23 C25 23.66 25 24.32 25 25 C24.21496094 25.3403125 23.42992187 25.680625 22.62109375 26.03125 C11.73574938 31.05320028 6.17844446 36.78827324 2 48 C1.34 48 0.68 48 0 48 C-0.3403125 47.21496094 -0.680625 46.42992187 -1.03125 45.62109375 C-6.05320028 34.73574938 -11.78827324 29.17844446 -23 25 C-23 24.34 -23 23.68 -23 23 C-22.21496094 22.6596875 -21.42992187 22.319375 -20.62109375 21.96875 C-9.73574938 16.94679972 -4.17844446 11.21172676 0 0 Z " fill="#7D9BD5" transform="translate(1126,832)"/>
<path d="M0 0 C1.38360718 -0.032146 1.38360718 -0.032146 2.79516602 -0.06494141 C3.66069092 -0.06929199 4.52621582 -0.07364258 5.41796875 -0.078125 C6.19293701 -0.0874707 6.96790527 -0.09681641 7.76635742 -0.10644531 C10.38662767 0.35001508 11.18253772 1.18183103 12.8125 3.25 C14.13712486 5.81862039 15.37262631 8.37056561 16.5625 11 C17.27080072 12.53777544 17.9791347 14.07553556 18.6875 15.61328125 C19.21923828 16.77657959 19.21923828 16.77657959 19.76171875 17.96337891 C20.74399606 20.10092754 21.74235858 22.22978075 22.75 24.35546875 C32.08426679 44.05371725 32.08426679 44.05371725 31.8125 50.25 C32.4725 50.25 33.1325 50.25 33.8125 50.25 C34.10125 51.36375 34.39 52.4775 34.6875 53.625 C35.50491329 57.25291092 35.50491329 57.25291092 37.8125 59.25 C37.9375 62.375 37.9375 62.375 37.8125 65.25 C38.4725 65.25 39.1325 65.25 39.8125 65.25 C42.66490164 71.56603219 43.76462649 78.43882219 44.8125 85.25 C45.4725 85.25 46.1325 85.25 46.8125 85.25 C47.98821451 88.92410785 47.88616746 92.41929183 47.8125 96.25 C48.4725 96.25 49.1325 96.25 49.8125 96.25 C50.80894824 100.96136207 51.80267381 105.67324015 52.7890625 110.38671875 C53.35319659 113.08048473 53.9277714 115.76998804 54.5234375 118.45703125 C55.62062827 123.50569892 56.00400289 128.07942187 55.8125 133.25 C55.4825 133.25 55.1525 133.25 54.8125 133.25 C54.70292969 132.63406982 54.59335937 132.01813965 54.48046875 131.38354492 C46.21579242 85.74724528 28.38980914 43.97766245 8.8125 2.25 C-23.13298537 1.25557795 -56.60152719 6.20865263 -87.0859375 15.9296875 C-89.1875 16.25 -89.1875 16.25 -92.1875 14.25 C-87.7325 13.755 -87.7325 13.755 -83.1875 13.25 C-83.1875 12.59 -83.1875 11.93 -83.1875 11.25 C-82.42824219 11.12882812 -81.66898437 11.00765625 -80.88671875 10.8828125 C-79.89285156 10.71523438 -78.89898437 10.54765625 -77.875 10.375 C-76.88886719 10.21257812 -75.90273438 10.05015625 -74.88671875 9.8828125 C-71.98690173 9.36914546 -71.98690173 9.36914546 -69.1875 7.25 C-66.93505859 6.76342773 -66.93505859 6.76342773 -64.3359375 6.43359375 C-63.40265625 6.30919922 -62.469375 6.18480469 -61.5078125 6.05664062 C-60.53585937 5.93482422 -59.56390625 5.81300781 -58.5625 5.6875 C-56.63233651 5.43988034 -54.70261663 5.18876911 -52.7734375 4.93359375 C-51.9179834 4.82587646 -51.0625293 4.71815918 -50.18115234 4.60717773 C-48.19418687 4.4471291 -48.19418687 4.4471291 -47.1875 3.25 C-45.72123913 3.03419158 -44.24597918 2.87882436 -42.76953125 2.75 C-41.85228271 2.6679834 -40.93503418 2.5859668 -39.98999023 2.50146484 C-39.00329346 2.41848145 -38.01659668 2.33549805 -37 2.25 C-35.99203369 2.16314941 -34.98406738 2.07629883 -33.94555664 1.98681641 C-31.93102211 1.81475537 -29.91629289 1.64495713 -27.90136719 1.47753906 C-25.7172454 1.2944155 -23.53420012 1.09847557 -21.3515625 0.8984375 C-14.24126171 0.29586964 -7.13267874 0.0928907 0 0 Z " fill="#1A4290" transform="translate(521.1875,467.75)"/>
<path d="M0 0 C16.83 0 33.66 0 51 0 C54 6 54 6 54 8 C54.66 8 55.32 8 56 8 C59 14.75 59 14.75 59 17 C59.66 17 60.32 17 61 17 C63.10865385 20.47307692 63.10865385 20.47307692 62.55859375 23.140625 C62.37425781 23.75421875 62.18992187 24.3678125 62 25 C61.85755859 24.30849854 61.71511719 23.61699707 61.56835938 22.90454102 C59.73140323 15.55114615 57.10078004 7.88404948 50.94927979 3.04638672 C37.73189534 -4.04879564 15.45511024 0.02671391 1 1 C8.25902719 14.18595382 15.55162764 27.33990096 23.1875 40.3125 C28.16090535 48.76631555 32.9442765 57.30088172 37.60668945 65.9296875 C40.94898077 72.10519043 44.37668606 78.2241049 47.875 84.3125 C52.50525126 92.38119457 57.11593232 100.46037424 61.6875 108.5625 C62.30028809 109.63991455 62.91307617 110.7173291 63.54443359 111.82739258 C64.1111377 112.83439209 64.6778418 113.8413916 65.26171875 114.87890625 C66.01908325 116.21804077 66.01908325 116.21804077 66.79174805 117.58422852 C67.87615676 119.75238859 68.53646409 121.63207824 69 124 C66.49962266 121.82575883 65.56371414 120.26954202 65 117 C64.34 117 63.68 117 63 117 C62.61070312 116.18660156 62.22140625 115.37320313 61.8203125 114.53515625 C57.97993776 106.66858219 53.8136036 99.09555566 49.28955078 91.59985352 C48.87688965 90.91334717 48.46422852 90.22684082 48.0390625 89.51953125 C47.66990723 88.91214111 47.30075195 88.30475098 46.92041016 87.67895508 C46 86 46 86 45 83 C44.01 82.34 43.02 81.68 42 81 C41.731875 80.175 41.46375 79.35 41.1875 78.5 C39.81339216 74.44999795 37.81490683 71.20475185 35.578125 67.578125 C33.2580126 63.78784236 31.13773201 59.89496156 29 56 C28.20874579 54.58310292 27.41707141 53.16644041 26.625 51.75 C25.7483631 50.16757237 24.87357707 48.58411886 24 47 C23.38253906 45.88238281 22.76507813 44.76476562 22.12890625 43.61328125 C21.48134076 42.42992274 20.83420367 41.24632971 20.1875 40.0625 C19.58292969 38.96035156 18.97835938 37.85820312 18.35546875 36.72265625 C17 34 17 34 17 32 C16.34 32 15.68 32 15 32 C13.99515796 30.04414675 12.99626195 28.08523763 12 26.125 C11.443125 25.03445313 10.88625 23.94390625 10.3125 22.8203125 C9 20 9 20 9 18 C8.34 18 7.68 18 7 18 C5.82333996 15.75474054 4.6585926 13.50455858 3.5 11.25 C3.16613281 10.61578125 2.83226562 9.9815625 2.48828125 9.328125 C0.72824467 5.87989007 0 3.95159931 0 0 Z " fill="#2C5196" transform="translate(352,233)"/>
<path d="M0 0 C7.35099898 0.06687789 14.70146097 0.15663585 22.05200195 0.26245117 C24.55356465 0.29574471 27.05520327 0.32376268 29.55688477 0.34643555 C33.14893002 0.3798996 36.74027666 0.43221243 40.33203125 0.48828125 C41.45398392 0.49467117 42.57593658 0.5010611 43.73188782 0.50764465 C44.77274033 0.52743881 45.81359283 0.54723297 46.88598633 0.56762695 C47.80309891 0.57873001 48.72021149 0.58983307 49.66511536 0.60127258 C52.42497786 1.07257332 53.3749843 1.74665429 55 4 C54.6875 6.1875 54.6875 6.1875 54 8 C53.7321167 7.1850708 53.4642334 6.3701416 53.18823242 5.53051758 C51.30455364 2.83312051 51.30455364 2.83312051 48.82974243 2.55307007 C45.8715698 2.41926433 42.94870658 2.43939485 39.98828125 2.51171875 C38.36323921 2.52233086 38.36323921 2.52233086 36.70536804 2.53315735 C33.24038038 2.56117746 29.77700037 2.62393339 26.3125 2.6875 C23.9655181 2.71257286 21.61851092 2.73538779 19.27148438 2.75585938 C13.5137731 2.81102901 7.75700138 2.89473179 2 3 C9.29802277 15.29709122 16.63213108 27.56201114 24.3125 39.625 C24.83730957 40.45016113 25.36211914 41.27532227 25.90283203 42.12548828 C32.41480306 52.29555453 39.18685627 62.29623559 45.91075134 72.32669067 C48.21139531 75.75985029 50.50983741 79.19448073 52.80786133 82.62939453 C53.99254065 84.39874863 55.17844325 86.1672842 56.36547852 87.93505859 C58.10234885 90.52226924 59.83480701 93.1123845 61.56640625 95.703125 C62.09859268 96.49366272 62.63077911 97.28420044 63.17909241 98.09869385 C63.66727951 98.83086121 64.15546661 99.56302856 64.65844727 100.31738281 C65.30270409 101.27877167 65.30270409 101.27877167 65.9599762 102.25958252 C67 104 67 104 68 107 C67.34 107 66.68 107 66 107 C64.437604 104.89356743 63.00399475 102.78979719 61.58984375 100.5859375 C61.1502684 99.91339935 60.71069305 99.24086121 60.25779724 98.54794312 C59.31586066 97.10628105 58.37673024 95.66278241 57.44012451 94.21765137 C55.57395397 91.34393064 53.68580455 88.48500882 51.79751587 85.62579346 C49.86830308 82.70298524 47.94579178 79.77579453 46.02319336 76.84863281 C44.56770776 74.63292785 43.11104996 72.41799678 41.65429688 70.203125 C19.94854426 37.18092786 19.94854426 37.18092786 12.90234375 25.546875 C12.54422607 24.95745117 12.1861084 24.36802734 11.81713867 23.76074219 C10.80633115 22.09294446 9.80142634 20.42157342 8.796875 18.75 C7.18286184 16.04273527 7.18286184 16.04273527 5.265625 14.375 C4 13 4 13 4 9 C3.34 9 2.68 9 2 9 C0.50178941 5.62902617 0 3.79557881 0 0 Z " fill="#234991" transform="translate(635,528)"/>
<path d="M0 0 C2.05747865 3.08621798 3.48311132 6.11394426 5.00390625 9.49609375 C5.28725327 10.12604752 5.57060028 10.75600128 5.86253357 11.40504456 C6.45976657 12.73499507 7.05560708 14.06557168 7.65014648 15.39672852 C8.55853348 17.42862761 9.47330552 19.45756534 10.38867188 21.48632812 C10.96913883 22.78107575 11.54922954 24.07599213 12.12890625 25.37109375 C12.65556885 26.54599365 13.18223145 27.72089355 13.72485352 28.93139648 C14.71655819 31.31790539 15.49039412 33.47913925 16 36 C3.63110246 36.15745414 -8.65154689 35.66471081 -21 35 C-22.85414697 34.90326754 -24.7083136 34.80691123 -26.5625 34.7109375 C-31.04190438 34.47827834 -35.52101464 34.2405855 -40 34 C-39.54036865 34.98395752 -39.0807373 35.96791504 -38.60717773 36.98168945 C-36.90701896 40.62802955 -35.21976472 44.28021702 -33.53637695 47.93432617 C-32.80552066 49.51603493 -32.07115866 51.09612866 -31.33325195 52.67456055 C-30.27413344 54.94165821 -29.22769452 57.21423571 -28.18359375 59.48828125 C-27.85032578 60.19463211 -27.5170578 60.90098297 -27.1736908 61.6287384 C-24.88612829 66.65838488 -24.88612829 66.65838488 -26 70 C-28 69 -28 69 -28.67578125 67.28515625 C-28.99095703 66.18494141 -28.99095703 66.18494141 -29.3125 65.0625 C-30.7379357 60.47024581 -32.73698864 56.39143704 -35.01171875 52.1640625 C-36 50 -36 50 -36 47 C-36.66 47 -37.32 47 -38 47 C-38.51172094 45.6293189 -39.00877492 44.25315925 -39.5 42.875 C-39.91765625 41.72644531 -39.91765625 41.72644531 -40.34375 40.5546875 C-41.09602189 37.62620051 -41.04350515 35.01273146 -41 32 C-36.32674529 31.97480203 -31.65353228 31.95691151 -26.98022461 31.94506836 C-25.39883737 31.94011804 -23.81745451 31.93335608 -22.23608398 31.92456055 C-11.11663502 31.86437887 -0.09242761 32.21657908 11 33 C10.505 29.04 10.505 29.04 10 25 C9.34 25 8.68 25 8 25 C7.84144531 24.46632813 7.68289063 23.93265625 7.51953125 23.3828125 C6.12981564 18.94493612 4.50600848 14.91909684 2.3125 10.8125 C0.34387889 7.03439781 -0.57131597 4.34200138 0 0 Z " fill="#0F3C96" transform="translate(587,435)"/>
<path d="M0 0 C0 0.66 0 1.32 0 2 C-2.80078422 3.27308373 -5.1150833 4.01353921 -8.1875 4.375 C-12.2371161 5.03887149 -15.44822152 6.31326065 -19.203125 7.90625 C-22.22203288 9.0868285 -25.25225552 9.94590105 -28.375 10.8125 C-34.33839849 12.57890951 -39.28167096 15.22056345 -44.5390625 18.51171875 C-47 20 -47 20 -50 21 C-50.67952303 22.3268273 -51.34366708 23.66154966 -52 25 C-53.44970147 26.60927682 -54.95469595 28.16979066 -56.5 29.6875 C-57.69109375 30.86892578 -57.69109375 30.86892578 -58.90625 32.07421875 C-61 34 -61 34 -63 35 C-63.77489034 36.65085333 -64.53524164 38.31084356 -65.203125 40.0078125 C-65.94232438 41.85581094 -66.81040381 43.65082258 -67.6875 45.4375 C-70.10484674 51.81625789 -69.41054242 59.29710551 -69 66 C-68.67 66.33 -68.34 66.66 -68 67 C-67.54540142 69.65463121 -67.29756762 72.32189138 -67 75 C-66.67 75 -66.34 75 -66 75 C-66 77.64 -66 80.28 -66 83 C-71.74382583 74.38426125 -73.24337064 61.04846475 -72 51 C-69.12138296 37.93301926 -61.41508186 26.52092987 -50.35595703 18.86132812 C-46.36158806 16.3271568 -42.21554601 14.14145887 -38 12 C-37.11828125 11.53980469 -36.2365625 11.07960938 -35.328125 10.60546875 C-25.13018792 5.61734735 -11.4824166 0 0 0 Z " fill="#1C4492" transform="translate(467,519)"/>
<path d="M0 0 C0.495 0.99 0.495 0.99 1 2 C0.00390625 4.1640625 0.00390625 4.1640625 -1.4375 6.625 C-2.14712891 7.85089844 -2.14712891 7.85089844 -2.87109375 9.1015625 C-3.24363281 9.72804688 -3.61617187 10.35453125 -4 11 C-4.66 11 -5.32 11 -6 11 C-6.06574219 11.56332031 -6.13148438 12.12664063 -6.19921875 12.70703125 C-7.32719953 15.93690793 -9.26730086 17.43296782 -11.8125 19.6875 C-12.68519531 20.47511719 -13.55789063 21.26273438 -14.45703125 22.07421875 C-16.79253757 23.84288943 -18.14691917 24.60761825 -21 25 C-21 25.66 -21 26.32 -21 27 C-27.2360482 30.25626162 -33.15027372 33.32562246 -40 35 C-40.33 35.33 -40.66 35.66 -41 36 C-47.61308058 37.32449483 -54.27823534 37.19213059 -61 37.1875 C-62.20301758 37.18669434 -63.40603516 37.18588867 -64.64550781 37.18505859 C-75.80130848 37.1083192 -86.27983991 36.205274 -97 33 C-97 32.34 -97 31.68 -97 31 C-98.27875 30.938125 -99.5575 30.87625 -100.875 30.8125 C-106.57524395 30.21438219 -111.06888932 27.78983506 -116 25 C-116 24.34 -116 23.68 -116 23 C-118.97 22.01 -121.94 21.02 -125 20 C-125 19.01 -125 18.02 -125 17 C-124.16359985 17.41511841 -124.16359985 17.41511841 -123.31030273 17.83862305 C-97.23413484 30.70929451 -69.1081586 41.05240321 -40 32 C-39.05898438 31.7215625 -38.11796875 31.443125 -37.1484375 31.15625 C-30.04857734 28.8362957 -24.07322752 25.31218192 -18 21 C-17.04480469 20.32517578 -17.04480469 20.32517578 -16.0703125 19.63671875 C-9.41632903 14.4392524 -4.63943231 6.95914846 0 0 Z " fill="#163F8E" transform="translate(567,692)"/>
<path d="M0 0 C20.09233592 15.62737238 35.26718525 41.34529945 39.5703125 66.3671875 C41.51275697 82.78967258 39.19655107 98.49523627 28.75 111.75 C27.53781396 113.19915474 26.29901736 114.62814055 25 116 C24.67 116 24.34 116 24 116 C24 114.35 24 112.7 24 111 C24.66 111 25.32 111 26 111 C26.495 109.515 26.495 109.515 27 108 C27.66 108 28.32 108 29 108 C29.28875 107.2575 29.5775 106.515 29.875 105.75 C30.82302644 103.43260203 31.84845911 101.22082885 33 99 C33.66 99 34.32 99 35 99 C35.144375 97.9275 35.28875 96.855 35.4375 95.75 C36 92 36 92 36.51953125 90.24609375 C39.41551052 76.7079793 37.28173394 56.82176239 30 45 C29.34 44.34 28.68 43.68 28 43 C27.67 41.783125 27.34 40.56625 27 39.3125 C23.23601299 27.31844812 13.35223542 15.86556263 4.34765625 7.45703125 C2.84516833 6.02524864 1.41728784 4.51616838 0 3 C0 2.01 0 1.02 0 0 Z " fill="#224991" transform="translate(749,327)"/>
<path d="M0 0 C2.22082061 2.83094511 4.01623147 5.69737196 5.71484375 8.8671875 C6.22990479 9.82375244 6.74496582 10.78031738 7.27563477 11.76586914 C8.09825806 13.30488892 8.09825806 13.30488892 8.9375 14.875 C10.11159504 17.05880032 11.28608253 19.24238968 12.4609375 21.42578125 C13.05358398 22.52873535 13.64623047 23.63168945 14.25683594 24.76806641 C16.35072029 28.65025703 18.47026674 32.51793144 20.59277344 36.38452148 C25.94682469 46.14010092 31.15493299 55.96344361 36.25610352 65.85375977 C36.73233154 66.77471436 37.20855957 67.69566895 37.69921875 68.64453125 C38.12033936 69.46284424 38.54145996 70.28115723 38.9753418 71.12426758 C39.86110668 72.95496095 39.86110668 72.95496095 41 74 C44.03342192 73.93438025 47.03556052 73.80611829 50.0625 73.625 C50.89716797 73.58117187 51.73183594 73.53734375 52.59179688 73.4921875 C56.42910012 73.2768439 60.22066182 72.99949009 64.02734375 72.46484375 C68.55164135 71.935452 72.95198798 71.88935329 77.5 71.9375 C78.73363281 71.94426758 78.73363281 71.94426758 79.9921875 71.95117188 C81.99482396 71.96281511 83.99742227 71.98074444 86 72 C86 72.66 86 73.32 86 74 C80.06 74.33 74.12 74.66 68 75 C68 75.33 68 75.66 68 76 C58.65190221 76.66433182 49.37877608 77.1598655 40 77 C38.68144905 74.75335738 37.37006028 72.50302694 36.0625 70.25 C35.50272461 69.29867187 35.50272461 69.29867187 34.93164062 68.328125 C33.14463236 65.23708368 31.75114727 62.48532332 31 59 C30.34 59 29.68 59 29 59 C28.61908203 58.00419922 28.61908203 58.00419922 28.23046875 56.98828125 C26.4430682 52.40262814 24.63420234 48.17082037 22 44 C21.25596439 42.6120354 20.52779917 41.21549031 19.8125 39.8125 C19.46832031 39.13832031 19.12414062 38.46414063 18.76953125 37.76953125 C18 36 18 36 18 34 C17.34 34 16.68 34 16 34 C15.27296875 32.51113281 15.27296875 32.51113281 14.53125 30.9921875 C10.47539512 22.7539873 6.22087819 14.74991394 1.46875 6.890625 C0 4 0 4 0 0 Z " fill="#244A90" transform="translate(436,383)"/>
<path d="M0 0 C0.33 0.66 0.66 1.32 1 2 C0.67 2.66 0.34 3.32 0 4 C-0.99 4 -1.98 4 -3 4 C-3.33 5.32 -3.66 6.64 -4 8 C-4.66 8 -5.32 8 -6 8 C-14.0901889 20.23475288 -16.18816463 34.84846331 -16.125 49.25 C-16.12886719 50.1471875 -16.13273438 51.044375 -16.13671875 51.96875 C-16.13542969 52.82984375 -16.13414062 53.6909375 -16.1328125 54.578125 C-16.13168457 55.35575195 -16.13055664 56.13337891 -16.12939453 56.93457031 C-16.07611745 59.19880171 -16.07611745 59.19880171 -15 62 C-14.84813389 63.8730154 -14.72682024 65.74859849 -14.625 67.625 C-14.26794496 72.41068935 -13.37789743 76.356384 -11.6953125 80.82421875 C-10.70224201 83.93174833 -10.44732741 87.00808125 -10.2109375 90.25 C-10.17952591 92.02627617 -10.17952591 92.02627617 -9 93 C-8.855625 94.11375 -8.71125 95.2275 -8.5625 96.375 C-8.24699783 100.08510547 -8.24699783 100.08510547 -6 103 C-5.43934799 105.25662433 -4.94713213 107.53066809 -4.5 109.8125 C-3.7927055 113.39894439 -3.08708 116.75905905 -1.84375 120.19921875 C-0.95293004 123.15624611 -1.13697511 124.15056933 -2 127 C-13.95626264 91.85868192 -28.78851299 47.5895592 -11.25 11.9375 C-8.31901226 6.9623362 -4.60900533 3.42750904 0 0 Z " fill="#17408F" transform="translate(625,283)"/>
<path d="M0 0 C0.763125 0.11085938 1.52625 0.22171875 2.3125 0.3359375 C2.869375 0.43132812 3.42625 0.52671875 4 0.625 C4 0.955 4 1.285 4 1.625 C-2.51769102 3.19823576 -9.00617217 4.21791634 -15.6484375 5.12109375 C-18.36256932 5.52916252 -20.96352416 6.03422866 -23.625 6.6875 C-34.31174928 9.19239728 -45.48468488 8.77469899 -56.39453125 8.7578125 C-57.95570389 8.75848848 -59.51687642 8.75946095 -61.07804871 8.76071167 C-64.33304863 8.76217611 -67.5880209 8.76007565 -70.84301758 8.75537109 C-74.97099176 8.74968895 -79.09890067 8.75295127 -83.22687244 8.75894356 C-86.44691947 8.76259554 -89.6669516 8.7613893 -92.88699913 8.75881577 C-94.40690812 8.7581585 -95.92681855 8.7589318 -97.44672585 8.76129532 C-107.3432779 8.77330852 -117.13212016 8.41007025 -127 7.625 C-127 7.295 -127 6.965 -127 6.625 C-125.7411776 6.62833092 -125.7411776 6.62833092 -124.45692444 6.63172913 C-116.47135562 6.65193107 -108.48579564 6.66707421 -100.50020695 6.67681217 C-96.39669245 6.68198714 -92.29319942 6.68898436 -88.18969727 6.70043945 C-84.21501396 6.711463 -80.24035104 6.71731715 -76.26565361 6.71987724 C-74.76414101 6.72169701 -73.26262926 6.7252484 -71.76112556 6.73073006 C-56.35204699 6.78464602 -41.18595999 6.07090252 -25.9375 3.6875 C-24.79345703 3.51798828 -23.64941406 3.34847656 -22.47070312 3.17382812 C-17.75313458 2.45706294 -13.11288123 1.71954955 -8.50390625 0.47265625 C-5.29602321 -0.3033868 -3.21629506 -0.5025461 0 0 Z " fill="#1B438E" transform="translate(739,508.375)"/>
<path d="M0 0 C1.32 0.33 2.64 0.66 4 1 C3.030625 1.86625 2.06125 2.7325 1.0625 3.625 C-12.71977274 17.43522867 -21.46272364 38.49799691 -22.1328125 57.83203125 C-22.13023437 59.14558594 -22.12765625 60.45914063 -22.125 61.8125 C-22.1237915 62.50811035 -22.12258301 63.2037207 -22.12133789 63.92041016 C-22.08515847 68.72392418 -21.77414266 73.4229115 -21.12109375 78.1796875 C-21 80 -21 80 -22 82 C-22.66 82 -23.32 82 -24 82 C-24.82919994 76.95240989 -25.15989577 72.05712307 -25.125 66.9375 C-25.12089111 66.20015625 -25.11678223 65.4628125 -25.11254883 64.703125 C-24.91733598 45.19023601 -24.91733598 45.19023601 -21.8125 37.14453125 C-20.91418118 34.77348783 -20.27905668 32.38649633 -19.625 29.9375 C-18.20467179 25.12792299 -16.119696 20.94337811 -13 17 C-12.34 16.67 -11.68 16.34 -11 16 C-10.731875 15.2575 -10.46375 14.515 -10.1875 13.75 C-8.7207538 10.35332458 -6.63767523 8.57487344 -4 6 C-2.56307948 4.0502236 -1.28945796 2.0535812 0 0 Z " fill="#174193" transform="translate(375,514)"/>
<path d="M0 0 C0.66 0 1.32 0 2 0 C2 0.66 2 1.32 2 2 C2.66 2 3.32 2 4 2 C8.42857143 9.28571429 8.42857143 9.28571429 9 14 C9.66 14 10.32 14 11 14 C11.67595315 15.41225926 12.34040059 16.83002905 13 18.25 C13.37125 19.03890625 13.7425 19.8278125 14.125 20.640625 C15 23 15 23 15 27 C15.66 27 16.32 27 17 27 C19 34 21 41 23 48 C23.35416992 49.11391113 23.70833984 50.22782227 24.07324219 51.37548828 C25.0351462 55.13745533 25.28875046 58.39232945 25.3359375 62.26953125 C25.34422577 62.94396774 25.35251404 63.61840424 25.36105347 64.3132782 C25.38025876 66.47991181 25.38039279 68.64579503 25.375 70.8125 C25.37512085 71.55032715 25.3752417 72.2881543 25.37536621 73.04833984 C25.34058701 87.92089673 23.95135705 101.59381141 17 115 C16.34 114.67 15.68 114.34 15 114 C15.40992188 112.82824219 15.81984375 111.65648437 16.2421875 110.44921875 C27.72259622 77.22056201 23.29566797 46.93711335 8.33544922 15.63134766 C5.73848556 10.31752467 2.91592967 5.14482046 0 0 Z " fill="#173F8C" transform="translate(808,331)"/>
<path d="M0 0 C-0.96679688 0.36351562 -1.93359375 0.72703125 -2.9296875 1.1015625 C-26.73018747 10.21338601 -42.36787536 24.78580795 -53 48 C-55.3563977 53.93513426 -57.04482645 59.68472633 -58 66 C-58.33 66 -58.66 66 -59 66 C-59.05449838 64.27119018 -59.09301688 62.54187288 -59.125 60.8125 C-59.14820313 59.84957031 -59.17140625 58.88664062 -59.1953125 57.89453125 C-58.9913544 54.87187222 -58.26874632 52.73230015 -57 50 C-56.34 50 -55.68 50 -55 50 C-54.938125 48.865625 -54.87625 47.73125 -54.8125 46.5625 C-53.93157823 39.47737206 -50.1566819 33.78834748 -45 29 C-44.67 28.01 -44.34 27.02 -44 26 C-43.34 26 -42.68 26 -42 26 C-41.7834375 25.071875 -41.7834375 25.071875 -41.5625 24.125 C-41 22 -41 22 -40 20 C-39.01 20 -38.02 20 -37 20 C-36.9175 19.39414062 -36.835 18.78828125 -36.75 18.1640625 C-35.76823916 15.33127341 -34.58690058 14.80703425 -32 13.375 C-28.90833391 11.76772106 -28.90833391 11.76772106 -27 9 C-26.34 9 -25.68 9 -25 9 C-25 8.34 -25 7.68 -25 7 C-23.35 6.67 -21.7 6.34 -20 6 C-20 5.34 -20 4.68 -20 4 C-18.845 3.731875 -17.69 3.46375 -16.5 3.1875 C-13.46130263 2.44398894 -10.64330171 1.49810108 -7.75 0.3125 C-4.06984183 -0.97555536 -3.42183507 -1.1279943 0 0 Z " fill="#194291" transform="translate(625,237)"/>
<path d="M0 0 C0.66 0 1.32 0 2 0 C2 0.66 2 1.32 2 2 C2.66 2 3.32 2 4 2 C4.33 4.64 4.66 7.28 5 10 C5.66 10 6.32 10 7 10 C7.50367757 11.45706726 8.00282556 12.91570096 8.5 14.375 C8.7784375 15.18710937 9.056875 15.99921875 9.34375 16.8359375 C10 19 10 19 10 21 C10.66 21 11.32 21 12 21 C12.67667998 22.24460783 13.34094719 23.49596896 14 24.75 C14.37125 25.44609375 14.7425 26.1421875 15.125 26.859375 C16 29 16 29 16 33 C16.66 33 17.32 33 18 33 C18.33 34.98 18.66 36.96 19 39 C19.66 39 20.32 39 21 39 C21.26554688 39.55429687 21.53109375 40.10859375 21.8046875 40.6796875 C22.15789063 41.40414062 22.51109375 42.12859375 22.875 42.875 C23.22304688 43.59429687 23.57109375 44.31359375 23.9296875 45.0546875 C24.96557543 47.15135019 24.96557543 47.15135019 27 49 C29.72000357 49.24556371 32.34574257 49.37356486 35.0703125 49.4140625 C35.86654022 49.43342865 36.66276794 49.4527948 37.48312378 49.4727478 C40.03030634 49.53260474 42.57753395 49.57895279 45.125 49.625 C46.8502803 49.66317421 48.57554143 49.70222561 50.30078125 49.7421875 C54.53369876 49.83831109 58.76670549 49.92231908 63 50 C63 50.33 63 50.66 63 51 C58.04847505 51.80984194 53.35047725 52.1178734 48.31640625 52.09765625 C47.61603745 52.0962413 46.91566864 52.09482635 46.19407654 52.09336853 C43.98350534 52.08782477 41.77303996 52.07528326 39.5625 52.0625 C38.05273585 52.05747771 36.54297009 52.05291609 35.03320312 52.04882812 C31.35543507 52.03787387 27.67772788 52.0206489 24 52 C0 4.85152838 0 4.85152838 0 0 Z " fill="#19418F" transform="translate(628,421)"/>
<path d="M0 0 C0.99 0 1.98 0 3 0 C4.33819498 2.6226232 5.6707151 5.24786599 7 7.875 C7.57234375 8.99455078 7.57234375 8.99455078 8.15625 10.13671875 C8.5171875 10.85214844 8.878125 11.56757813 9.25 12.3046875 C9.58515625 12.96452637 9.9203125 13.62436523 10.265625 14.30419922 C11 16 11 16 11 18 C11.66 18 12.32 18 13 18 C14.51012131 20.76543196 16.00630148 23.53816807 17.5 26.3125 C17.92925781 27.09818359 18.35851562 27.88386719 18.80078125 28.69335938 C19.40986328 29.8293457 19.40986328 29.8293457 20.03125 30.98828125 C20.40830078 31.68477783 20.78535156 32.38127441 21.17382812 33.09887695 C22 35 22 35 22 38 C22.66 38 23.32 38 24 38 C24.67119549 39.4562545 25.33681807 40.91507867 26 42.375 C26.37125 43.18710937 26.7425 43.99921875 27.125 44.8359375 C28 47 28 47 28 49 C28.66 49 29.32 49 30 49 C30.66 51.31 31.32 53.62 32 56 C32.66 56 33.32 56 34 56 C38.40774487 64.261959 38.40774487 64.261959 39 69 C39.66 69 40.32 69 41 69 C41.86883706 70.57533086 42.71959068 72.16064509 43.5625 73.75 C44.03816406 74.63171875 44.51382813 75.5134375 45.00390625 76.421875 C46.11430047 79.2958365 45.86866892 80.15900379 45 83 C44.37508667 81.81748657 44.37508667 81.81748657 43.73754883 80.61108398 C36.21359613 66.39160776 28.64351835 52.21492506 20.67529297 38.23779297 C16.86383152 31.54777859 13.12558056 24.82133317 9.4375 18.0625 C8.94862305 17.16853516 8.45974609 16.27457031 7.95605469 15.35351562 C5.19784098 10.28426192 2.54968004 5.1773503 0 0 Z " fill="#1A4392" transform="translate(455,329)"/>
<path d="M0 0 C22.67612209 0.8098615 45.57681036 16.73439723 63 30 C63.96421875 30.7321875 64.9284375 31.464375 65.921875 32.21875 C71.86111984 36.86685466 77.44930774 41.89808711 83 47 C81.515 47.495 81.515 47.495 80 48 C77.83286614 46.39820541 75.94802801 44.8360164 74 43 C73.05125 42.113125 72.1025 41.22625 71.125 40.3125 C69 38 69 38 69 36 C67.02 35.505 67.02 35.505 65 35 C65 34.34 65 33.68 65 33 C64.2575 32.9175 63.515 32.835 62.75 32.75 C59.4245173 31.84305017 58.33543813 30.48140301 56 28 C55.0925 27.46375 54.185 26.9275 53.25 26.375 C52.5075 25.92125 51.765 25.4675 51 25 C51 24.34 51 23.68 51 23 C50.4225 22.896875 49.845 22.79375 49.25 22.6875 C46.65708532 21.89522052 45.15204226 20.63033505 43 19 C41.35202764 18.28837557 39.68834592 17.60968047 38 17 C38 16.34 38 15.68 38 15 C36.93265625 14.8453125 36.93265625 14.8453125 35.84375 14.6875 C31.68668584 13.68249548 28.38766124 11.51863353 24.71875 9.375 C22.08764244 8.04432491 19.90208742 7.42059238 17 7 C17 6.34 17 5.68 17 5 C15.66195312 4.80083984 15.66195312 4.80083984 14.296875 4.59765625 C12.54117188 4.33275391 12.54117188 4.33275391 10.75 4.0625 C9.58984375 3.88847656 8.4296875 3.71445312 7.234375 3.53515625 C4.76893039 3.1272264 2.40575438 2.66098697 0 2 C0 1.34 0 0.68 0 0 Z " fill="#19418D" transform="translate(666,279)"/>
<path d="M0 0 C0.33 0 0.66 0 1 0 C5.71732666 23.32765567 5.71732666 23.32765567 6 33 C6.02046387 33.66563965 6.04092773 34.3312793 6.06201172 35.01708984 C6.51840552 52.11488416 5.65855808 68.78858923 -5 83 C-5.66 82.34 -6.32 81.68 -7 81 C-6.34 81 -5.68 81 -5 81 C-4.80664062 80.21753906 -4.61328125 79.43507813 -4.4140625 78.62890625 C-4.15367187 77.61699219 -3.89328125 76.60507812 -3.625 75.5625 C-3.24214844 74.04849609 -3.24214844 74.04849609 -2.8515625 72.50390625 C-2 70 -2 70 0 69 C0.46806645 66.66255706 0.82669794 64.30260921 1.125 61.9375 C1.37636719 60.00197266 1.37636719 60.00197266 1.6328125 58.02734375 C1.75398437 57.02832031 1.87515625 56.02929688 2 55 C2.66 55 3.32 55 4 55 C3.6886149 42.80609077 3.02361159 30.73317158 1.5 18.625 C1.36940186 17.57957031 1.23880371 16.53414062 1.10424805 15.45703125 C0.88166902 10.87681861 0.88166902 10.87681861 -1 7 C-1.125 4 -1.125 4 -1 1 C-0.67 0.67 -0.34 0.34 0 0 Z " fill="#214A95" transform="translate(531,594)"/>
<path d="M0 0 C10.47435838 0.91880337 17.9734269 5.56912946 26.875 10.9375 C27.98182129 11.60410645 29.08864258 12.27071289 30.22900391 12.95751953 C46.60743925 22.91863149 61.5827068 34.06784383 75.76171875 46.98046875 C78.44612148 49.40252147 81.19881784 51.71482508 84 54 C83.67 54.99 83.34 55.98 83 57 C82.33355469 56.31035156 81.66710937 55.62070312 80.98046875 54.91015625 C74.65067332 48.45642077 68.12538238 42.58317633 61 37 C60.03835938 36.22140625 59.07671875 35.4428125 58.0859375 34.640625 C40.88772152 20.96913179 20.86644831 8.18792821 0 1 C0 0.67 0 0.34 0 0 Z " fill="#214891" transform="translate(699,243)"/>
<path d="M0 0 C0.66 0.33 1.32 0.66 2 1 C1.84273437 2.15113281 1.68546875 3.30226563 1.5234375 4.48828125 C0.73378468 11.70053731 0.66783105 18.93956766 0.625 26.1875 C0.62010559 26.94868134 0.61521118 27.70986267 0.61016846 28.49411011 C0.56822165 44.4141699 2.78580341 59.41188943 6 75 C6.3889737 76.9464244 6.77708672 78.89302115 7.1640625 80.83984375 C7.44238839 82.22662675 7.72089813 83.61337296 8 85 C7.01 84.67 6.02 84.34 5 84 C4.0859375 80.875 4.0859375 80.875 3.375 77 C2.91374861 72.67344051 2.91374861 72.67344051 1 69 C-2.84410066 46.08018323 -3.21281404 22.97735754 0 0 Z " fill="#1F4792" transform="translate(564,304)"/>
<path d="M0 0 C2.2379267 2.80783349 4.03559843 5.75086419 5.80273438 8.87231445 C15.74455268 26.28181458 29.784086 41.01503045 44 55 C45.0010923 55.99890651 46.0016116 56.99839099 47 58 C42.25 56.125 42.25 56.125 40 55 C40 54.34 40 53.68 40 53 C39.34 53 38.68 53 38 53 C38 52.34 38 51.68 38 51 C37.34 51 36.68 51 36 51 C36 50.34 36 49.68 36 49 C35.195625 48.7525 34.39125 48.505 33.5625 48.25 C32.716875 47.8375 31.87125 47.425 31 47 C30.6278958 45.67696283 30.29369827 44.34262065 30 43 C29.41863281 42.731875 28.83726562 42.46375 28.23828125 42.1875 C25.29584647 40.62641767 23.79927357 38.61092633 21.75 36 C21.04359375 35.113125 20.3371875 34.22625 19.609375 33.3125 C18 31 18 31 18 29 C17.34 29 16.68 29 16 29 C14.58556139 27.02988908 13.29258382 25.04870312 12 23 C11.0437934 21.58189699 10.0853107 20.16532702 9.125 18.75 C6.91709572 15.42124635 4.74074446 12.07568512 2.625 8.6875 C2.12226563 7.88699219 1.61953125 7.08648438 1.1015625 6.26171875 C0 4 0 4 0 0 Z " fill="#20478F" transform="translate(367,632)"/>
<path d="M0 0 C4.56940061 4.18861723 7.830785 8.91412027 11.25 14.0625 C15.79842688 20.8296717 20.4690253 27.42264819 25.48828125 33.84765625 C27 36 27 36 27 38 C44.82 38 62.64 38 81 38 C81 38.33 81 38.66 81 39 C73.24065214 39.15199765 65.4816873 39.25715211 57.72119141 39.32958984 C55.08074599 39.35978306 52.44040103 39.4007419 49.80029297 39.45263672 C46.00723513 39.52533343 42.21550175 39.55943261 38.421875 39.5859375 C37.23946228 39.61690521 36.05704956 39.64787292 34.83880615 39.67977905 C31.77423906 39.68104065 28.9973454 39.63915606 26 39 C23.32128906 36.06103516 23.32128906 36.06103516 22 33 C21.484375 32.484375 20.96875 31.96875 20.4375 31.4375 C18.50767835 29.50767835 17.28937966 27.39456222 16 25 C16 24.34 16 23.68 16 23 C15.34 23 14.68 23 14 23 C12.37890625 20.734375 12.37890625 20.734375 10.5625 17.75 C8.06250136 13.66004647 8.06250136 13.66004647 5.27734375 9.765625 C4 8 4 8 4 6 C3.34 6 2.68 6 2 6 C1.34 4.02 0.68 2.04 0 0 Z " fill="#173E8A" transform="translate(741,690)"/>
<path d="M0 0 C2 1.375 2 1.375 4 3 C4 3.66 4 4.32 4 5 C-13.82 5 -31.64 5 -50 5 C-50 4.34 -50 3.68 -50 3 C-33.25425286 2.14694762 -16.73814431 1.92912786 0 3 C0 2.01 0 1.02 0 0 Z " fill="#C1D4EA" transform="translate(818,723)"/>
<path d="M0 0 C0.495 0.99 0.495 0.99 1 2 C0.00390625 4.1640625 0.00390625 4.1640625 -1.4375 6.625 C-1.91058594 7.44226563 -2.38367188 8.25953125 -2.87109375 9.1015625 C-3.24363281 9.72804688 -3.61617187 10.35453125 -4 11 C-4.66 11 -5.32 11 -6 11 C-6.06574219 11.56332031 -6.13148438 12.12664063 -6.19921875 12.70703125 C-7.32719953 15.93690793 -9.26730086 17.43296782 -11.8125 19.6875 C-12.68519531 20.47511719 -13.55789063 21.26273438 -14.45703125 22.07421875 C-16.79253757 23.84288943 -18.14691917 24.60761825 -21 25 C-21 25.66 -21 26.32 -21 27 C-33.54609929 33.55116515 -33.54609929 33.55116515 -40 35 C-40.9075 35.2475 -41.815 35.495 -42.75 35.75 C-45 36 -45 36 -48 34 C-46.94425781 33.79697266 -46.94425781 33.79697266 -45.8671875 33.58984375 C-25.0287774 29.0467439 -11.52515065 17.28772598 0 0 Z " fill="#1C4491" transform="translate(567,692)"/>
<path d="M0 0 C0.66 0 1.32 0 2 0 C2 0.66 2 1.32 2 2 C2.99 2.33 3.98 2.66 5 3 C6.82421875 5.21484375 6.82421875 5.21484375 8.6875 7.9375 C9.62142578 9.28134766 9.62142578 9.28134766 10.57421875 10.65234375 C12 13 12 13 12 15 C12.66 15 13.32 15 14 15 C15.48046875 17.08984375 15.48046875 17.08984375 17.1875 19.9375 C20.0482322 24.57571643 23.10867056 28.87898578 26.51953125 33.125 C27.75684619 34.69204795 28.89246115 36.33869172 30 38 C29.67 38.99 29.34 39.98 29 41 C21.80826848 31.8512265 15.00543754 22.4719261 8.34814453 12.92822266 C7.13335784 11.1907389 5.91100725 9.45904445 4.68359375 7.73046875 C3.72646484 6.37888672 3.72646484 6.37888672 2.75 5 C1.93789063 3.8553125 1.93789063 3.8553125 1.109375 2.6875 C0 1 0 1 0 0 Z " fill="#1C4493" transform="translate(775,662)"/>
<path d="M0 0 C1.6093406 4.82802179 -1.53061671 9.04384886 -3.6875 13.4375 C-6.10484674 19.81625789 -5.41054242 27.29710551 -5 34 C-4.67 34.33 -4.34 34.66 -4 35 C-3.54540142 37.65463121 -3.29756762 40.32189138 -3 43 C-2.67 43 -2.34 43 -2 43 C-2 45.64 -2 48.28 -2 51 C-7.73477359 42.39783962 -9.26373397 29.03404771 -8 19 C-6.36322718 12.10217168 -3.79889159 5.96968679 0 0 Z " fill="#2B5098" transform="translate(403,551)"/>
<path d="M0 0 C4.46519071 1.43377683 8.78613264 3.09707771 13.125 4.875 C15.12672424 5.6737826 17.1305124 6.46712367 19.13525391 7.25830078 C20.7663174 7.90705319 22.38972171 8.5749951 24.01171875 9.24609375 C32.84576247 12.60968362 41.65359479 12.79230211 51 13 C48.35290557 15.64709443 47.07549257 15.32908818 43.375 15.375 C28.49857681 15.06507452 13.64278845 9.80238459 1 2 C0.67 1.34 0.34 0.68 0 0 Z " fill="#2B4F96" transform="translate(461,670)"/>
<path d="M0 0 C6.92334988 -0.07595711 13.84659263 -0.12856051 20.77026367 -0.16479492 C23.12642431 -0.17989747 25.48255677 -0.20038091 27.83862305 -0.22631836 C31.22191312 -0.26263656 34.60483208 -0.27971167 37.98828125 -0.29296875 C39.57277824 -0.31619453 39.57277824 -0.31619453 41.18928528 -0.33988953 C42.66047066 -0.34022942 42.66047066 -0.34022942 44.16137695 -0.34057617 C45.45710381 -0.35056892 45.45710381 -0.35056892 46.77900696 -0.36076355 C49.48067918 0.07807838 50.40125236 0.80768326 52 3 C51.6875 5.1875 51.6875 5.1875 51 7 C50.68571045 6.1843457 50.3714209 5.36869141 50.04760742 4.52832031 C48.12520819 1.56794207 48.12520819 1.56794207 44.11450195 1.44824219 C42.48878017 1.45580727 40.86304336 1.49051365 39.23828125 1.546875 C38.37365768 1.55632141 37.50903412 1.56576782 36.61820984 1.57550049 C33.84868887 1.61011892 31.08130101 1.67881394 28.3125 1.75 C25.56183572 1.80017435 22.81120133 1.84325007 20.06034851 1.88165283 C18.3494362 1.90777348 16.63861949 1.94178355 14.92805481 1.98504639 C9.83901105 2.0894224 5.03730512 1.74562644 0 1 C0 0.67 0 0.34 0 0 Z " fill="#2F5293" transform="translate(638,529)"/>
<path d="M0 0 C3 1 3 1 4.5625 3.875 C5.036875 4.90625 5.51125 5.9375 6 7 C6.99 8.485 6.99 8.485 8 10 C8 10.99 8 11.98 8 13 C8.99 13.33 9.98 13.66 11 14 C12.70533217 17.32091002 13 19.18492784 13 23 C13.66 23 14.32 23 15 23 C16.4606285 25.64738916 17 26.89448334 17 30 C17.66 30 18.32 30 19 30 C19.99 32.97 20.98 35.94 22 39 C21.01 39.495 21.01 39.495 20 40 C19.67837891 39.34628418 19.35675781 38.69256836 19.02539062 38.01904297 C10.63082547 20.97260235 10.63082547 20.97260235 1.328125 4.4140625 C0 2 0 2 0 0 Z " fill="#194393" transform="translate(501,412)"/>
<path d="M0 0 C2.95984464 2.74791786 4.93618906 5.33322994 6.8125 8.90234375 C7.32522461 9.8655957 7.83794922 10.82884766 8.36621094 11.82128906 C8.90536133 12.84963867 9.44451172 13.87798828 10 14.9375 C14.9235059 24.20046268 19.99360713 33.35150857 25.3046875 42.39819336 C25.77648437 43.2103833 26.24828125 44.02257324 26.734375 44.859375 C27.14913086 45.56545898 27.56388672 46.27154297 27.99121094 46.99902344 C28.9973481 48.99473983 29.55073879 50.81734947 30 53 C27.49962266 50.82575883 26.56371414 49.26954202 26 46 C25.34 46 24.68 46 24 46 C23.61070312 45.18660156 23.22140625 44.37320313 22.8203125 43.53515625 C18.97993776 35.66858219 14.8136036 28.09555566 10.28955078 20.59985352 C9.87688965 19.91334717 9.46422852 19.22684082 9.0390625 18.51953125 C8.66990723 17.91214111 8.30075195 17.30475098 7.92041016 16.67895508 C7 15 7 15 6 12 C5.01 11.34 4.02 10.68 3 10 C1.72031814 6.72970191 0.78912322 3.41953393 0 0 Z " fill="#22488D" transform="translate(391,304)"/>
<path d="M0 0 C1.85546875 0.59765625 1.85546875 0.59765625 4 2 C5.23828125 4.80859375 5.23828125 4.80859375 6.3125 8.4375 C6.7299058 9.79264624 7.15065041 11.14676728 7.57421875 12.5 C7.79899902 13.22445312 8.0237793 13.94890625 8.25537109 14.6953125 C9.58826969 18.82074292 11.11125585 22.87567978 12.625 26.9375 C12.91415283 27.71730225 13.20330566 28.49710449 13.5012207 29.30053711 C13.92213989 30.4337439 13.92213989 30.4337439 14.3515625 31.58984375 C14.76136353 32.69561768 14.76136353 32.69561768 15.17944336 33.82373047 C15.72315766 35.26576239 16.28114442 36.70249927 16.85375977 38.13330078 C18.43891495 42.14015481 19.41586462 45.65383387 19.6875 50 C19.75324219 50.94875 19.81898438 51.8975 19.88671875 52.875 C19.92410156 53.57625 19.96148438 54.2775 20 55 C18.07930434 51.47753323 16.8843309 47.83316928 15.64453125 44.0234375 C15.18548519 42.62355669 14.72624952 41.22373805 14.2668457 39.82397461 C13.91017319 38.73220413 13.91017319 38.73220413 13.54629517 37.61837769 C9.39488097 24.92656612 5.0903205 12.35227943 0 0 Z " fill="#E3F3FE" transform="translate(509,525)"/>
<path d="M0 0 C-1.13695312 0.59425781 -2.27390625 1.18851562 -3.4453125 1.80078125 C-12.77932117 6.77722826 -21.22899348 12.09294139 -29.375 18.84765625 C-32 21 -32 21 -34 22 C-33.34 20.02 -32.68 18.04 -32 16 C-31.01 16 -30.02 16 -29 16 C-29 15.34 -29 14.68 -29 14 C-26 12 -26 12 -23 12 C-22.67 11.01 -22.34 10.02 -22 9 C-21.34 9 -20.68 9 -20 9 C-20 8.34 -20 7.68 -20 7 C-19.01 7 -18.02 7 -17 7 C-17 6.34 -17 5.68 -17 5 C-15.02 4.67 -13.04 4.34 -11 4 C-11 3.34 -11 2.68 -11 2 C-9.73392393 1.46770674 -8.46189588 0.94955456 -7.1875 0.4375 C-6.47980469 0.14746094 -5.77210938 -0.14257812 -5.04296875 -0.44140625 C-3 -1 -3 -1 0 0 Z " fill="#194292" transform="translate(413,492)"/>
<path d="M0 0 C1.52282593 0.00386719 1.52282593 0.00386719 3.07641602 0.0078125 C11.07964926 0.16821133 11.07964926 0.16821133 15 2.4375 C14.43603516 2.46255615 13.87207031 2.4876123 13.29101562 2.51342773 C10.69385118 2.63068301 8.0969369 2.75281266 5.5 2.875 C4.613125 2.91431641 3.72625 2.95363281 2.8125 2.99414062 C-3.84264047 3.31221719 -10.33581812 3.63824543 -16.75 5.5625 C-19.979584 6.43200339 -20.95927503 6.37615858 -24 5.4375 C-16.09256567 0.67603417 -9.06390018 -0.03398697 0 0 Z " fill="#153E8D" transform="translate(650,276.5625)"/>
<path d="M0 0 C0.99 0.33 1.98 0.66 3 1 C-6.31411741 7.54687963 -20.1692575 17 -32 17 C-31 14 -31 14 -28.234375 12.61328125 C-26.50960937 11.96939453 -26.50960937 11.96939453 -24.75 11.3125 C-23.61046875 10.87550781 -22.4709375 10.43851562 -21.296875 9.98828125 C-18.29473805 9.08835157 -16.09885269 8.78447829 -13 9 C-13 8.34 -13 7.68 -13 7 C-12.31292969 6.74605469 -11.62585938 6.49210937 -10.91796875 6.23046875 C-10.01691406 5.88628906 -9.11585938 5.54210937 -8.1875 5.1875 C-7.29417969 4.85105469 -6.40085937 4.51460938 -5.48046875 4.16796875 C-3.08075928 3.03802681 -1.71576647 1.98937707 0 0 Z " fill="#174193" transform="translate(763,448)"/>
<path d="M0 0 C3.50593832 1.16864611 4.08859743 1.92513499 6 5 C6.309375 5.99 6.61875 6.98 6.9375 8 C7.78414442 11.09580677 7.78414442 11.09580677 10.125 13.0625 C12 15 12 15 12.25 17.75 C12.1675 18.4925 12.085 19.235 12 20 C12.99 20.33 13.98 20.66 15 21 C16.421875 23.3984375 16.421875 23.3984375 17.75 26.375 C18.42289062 27.84066406 18.42289062 27.84066406 19.109375 29.3359375 C20 32 20 32 19 35 C18.60208252 34.28457031 18.20416504 33.56914062 17.79418945 32.83203125 C16.29551702 30.13986267 14.79497195 27.44874861 13.29321289 24.75830078 C12.33273062 23.03627108 11.37435026 21.31306956 10.41601562 19.58984375 C7.72060188 14.76350081 5.02619207 9.96780158 2.04296875 5.3125 C0 2 0 2 0 0 Z " fill="#1A4391" transform="translate(415,258)"/>
<path d="M0 0 C2.05747865 3.08621798 3.48311132 6.11394426 5.00390625 9.49609375 C5.42892677 10.4410244 5.42892677 10.4410244 5.86253357 11.40504456 C6.45976657 12.73499507 7.05560708 14.06557168 7.65014648 15.39672852 C8.55853348 17.42862761 9.47330552 19.45756534 10.38867188 21.48632812 C10.96913883 22.78107575 11.54922954 24.07599213 12.12890625 25.37109375 C12.65556885 26.54599365 13.18223145 27.72089355 13.72485352 28.93139648 C15 32 15 32 16 36 C10.72 36 5.44 36 0 36 C0 35.67 0 35.34 0 35 C4.62 35 9.24 35 14 35 C13.34 33.72125 12.68 32.4425 12 31.125 C10 27.25 10 27.25 10 25 C9.34 25 8.68 25 8 25 C7.76216797 24.19949219 7.76216797 24.19949219 7.51953125 23.3828125 C6.12981564 18.94493612 4.50600848 14.91909684 2.3125 10.8125 C0.34387889 7.03439781 -0.57131597 4.34200138 0 0 Z " fill="#2A4F94" transform="translate(587,435)"/>
<path d="M0 0 C0.33 0.66 0.66 1.32 1 2 C0.67 2.66 0.34 3.32 0 4 C-0.99 4 -1.98 4 -3 4 C-3.33 5.32 -3.66 6.64 -4 8 C-4.66 8 -5.32 8 -6 8 C-12.17057821 17.33173507 -14.58882013 28.02102062 -16 39 C-16.66 38.67 -17.32 38.34 -18 38 C-17.1784732 25.88247973 -13.86641305 12.89404449 -5.05859375 4.05078125 C-3.42615374 2.63599991 -1.71987004 1.30710123 0 0 Z " fill="#1D4490" transform="translate(625,283)"/>
<path d="M0 0 C8.43342026 -0.72981521 15.98834153 1.2769105 24.03125 3.48291016 C27.89878424 4.49871342 31.82708597 5.28299328 35.7421875 6.09375 C38 7 38 7 39.3203125 9.09375 C39.54460938 9.7228125 39.76890625 10.351875 40 11 C39.40574219 10.81824219 38.81148437 10.63648438 38.19921875 10.44921875 C35.46946016 9.62137594 32.73514316 8.80986742 30 8 C29.13503906 7.73703125 28.27007813 7.4740625 27.37890625 7.203125 C20.00819422 5.05652833 12.61076654 3.94440169 5 3 C5 2.67 5 2.34 5 2 C3.35 1.67 1.7 1.34 0 1 C0 0.67 0 0.34 0 0 Z " fill="#1C4493" transform="translate(658,232)"/>
<path d="M0 0 C2.54040397 2.54040397 3.25551871 4.89516143 4.53125 8.2578125 C4.76783325 8.87969452 5.0044165 9.50157654 5.24816895 10.14230347 C5.74832471 11.46105905 6.24577429 12.78084369 6.74072266 14.1015625 C7.4903337 16.09923978 8.25030844 18.09273231 9.01171875 20.0859375 C14.07298904 33.42430174 14.07298904 33.42430174 15 39 C14.34 39.66 13.68 40.32 13 41 C12.76925781 40.12859375 12.53851562 39.2571875 12.30078125 38.359375 C10.0866554 30.27300233 7.37206615 22.6908638 4 15 C3.21864522 13.19201079 2.44713609 11.37972131 1.6875 9.5625 C1.36136719 8.80066406 1.03523438 8.03882813 0.69921875 7.25390625 C-0.08290578 4.73275624 -0.1249787 2.62455261 0 0 Z " fill="#204892" transform="translate(509,526)"/>
<path d="M0 0 C3.35620271 1.38877354 5.07298728 2.91677965 7 6 C7 6.66 7 7.32 7 8 C7.66 8 8.32 8 9 8 C10.19140625 9.43359375 10.19140625 9.43359375 11.5625 11.4375 C15.21003902 16.48311294 19.53659526 20.68267033 24 25 C25.33562625 26.33103647 26.66967984 27.66366029 28 29 C25 29 25 29 23.11816406 27.49047852 C22.42432617 26.79365967 21.73048828 26.09684082 21.015625 25.37890625 C20.24476563 24.60740234 19.47390625 23.83589844 18.6796875 23.04101562 C17.87789063 22.22310547 17.07609375 21.40519531 16.25 20.5625 C15.07050781 19.3878418 15.07050781 19.3878418 13.8671875 18.18945312 C0 4.19557205 0 4.19557205 0 0 Z " fill="#19418E" transform="translate(415,627)"/>
<path d="M0 0 C2.08698057 3.13047086 3.68768821 6.36109544 5.29296875 9.75 C5.60325516 10.40452148 5.91354156 11.05904297 6.23323059 11.73339844 C6.88604349 13.11453998 7.53735246 14.49639324 8.18725586 15.87890625 C8.85506562 17.29504763 9.5272855 18.70911757 10.20385742 20.12109375 C11.18067328 22.15966597 12.1444701 24.2039328 13.10546875 26.25 C13.41058884 26.88131836 13.71570892 27.51263672 14.03007507 28.16308594 C16.11414417 32.6575675 16.11414417 32.6575675 15 36 C13 35 13 35 12.32421875 33.28515625 C12.11410156 32.55167969 11.90398438 31.81820313 11.6875 31.0625 C10.2620643 26.47024581 8.26301136 22.39143704 5.98828125 18.1640625 C5 16 5 16 5 13 C4.34 13 3.68 13 3 13 C2.49242138 11.58603098 1.99425075 10.16868271 1.5 8.75 C1.08234375 7.56664062 1.08234375 7.56664062 0.65625 6.359375 C0 4 0 4 0 0 Z " fill="#1E4690" transform="translate(546,469)"/>
<path d="M0 0 C0.99 0.33 1.98 0.66 3 1 C-6 7 -6 7 -9 7 C-9 7.66 -9 8.32 -9 9 C-11.05590454 9.86992154 -13.12005336 10.72037689 -15.1875 11.5625 C-16.91033203 12.27599609 -16.91033203 12.27599609 -18.66796875 13.00390625 C-22.05139127 14.01536316 -23.68416941 14.04283184 -27 13 C-24.63817921 11.4254528 -22.81772435 10.43373845 -20.234375 9.4140625 C-19.50863281 9.12273437 -18.78289063 8.83140625 -18.03515625 8.53125 C-16.52789685 7.93349927 -15.02009502 7.33711427 -13.51171875 6.7421875 C-9.87436914 5.27954956 -6.48938289 3.75857442 -3.140625 1.7109375 C-2.10421875 1.14632813 -1.0678125 0.58171875 0 0 Z " fill="#1C4492" transform="translate(779,491)"/>
<path d="M0 0 C0.66 0 1.32 0 2 0 C0.20001644 10.79990138 -4.3275735 20.14914498 -12 28 C-12.33 28 -12.66 28 -13 28 C-13 26.35 -13 24.7 -13 23 C-12.34 23 -11.68 23 -11 23 C-10.67 22.01 -10.34 21.02 -10 20 C-9.34 20 -8.68 20 -8 20 C-7.71125 19.2575 -7.4225 18.515 -7.125 17.75 C-6.17697356 15.43260203 -5.15154089 13.22082885 -4 11 C-3.34 11 -2.68 11 -2 11 C-1.855625 9.9275 -1.71125 8.855 -1.5625 7.75 C-1.16250558 5.08337051 -0.72408076 2.58600271 0 0 Z " fill="#214895" transform="translate(786,415)"/>
<path d="M0 0 C4.11713089 3.84265549 7.19838462 7.94687206 10.3125 12.625 C11.27223339 14.04508535 12.23317956 15.46435179 13.1953125 16.8828125 C13.66614258 17.57793945 14.13697266 18.27306641 14.62207031 18.98925781 C17.64486802 23.40027163 20.8210505 27.70067575 24 32 C23.01 32 22.02 32 21 32 C19.1328125 29.8046875 19.1328125 29.8046875 17.125 26.875 C13.89881465 22.23328013 13.89881465 22.23328013 10.3125 17.875 C7.83129919 14.79026386 6.03965771 11.64632514 4.2109375 8.1484375 C3.02860179 5.93292707 3.02860179 5.93292707 1.3515625 3.8515625 C0 2 0 2 0 0 Z " fill="#20468E" transform="translate(717,656)"/>
<path d="M0 0 C0.66 0 1.32 0 2 0 C5 3.46153846 5 3.46153846 5 6 C5.66 6 6.32 6 7 6 C7.37125 7.11375 7.37125 7.11375 7.75 8.25 C8.85126021 11.09997265 8.85126021 11.09997265 11.125 13.125 C13 15 13 15 13 18 C13.66 18 14.32 18 15 18 C16.5625 20.8125 16.5625 20.8125 18 24 C17.67 24.99 17.34 25.98 17 27 C14.57301839 23.48026916 12.15211711 19.95646106 9.73681641 16.42871094 C8.91394141 15.22867137 8.08940232 14.02977114 7.26318359 12.83203125 C6.07733049 11.1123307 4.89748079 9.38864996 3.71875 7.6640625 C3.00654297 6.62717285 2.29433594 5.5902832 1.56054688 4.52197266 C0 2 0 2 0 0 Z " fill="#194390" transform="translate(729,595)"/>
<path d="M0 0 C0.66 0.33 1.32 0.66 2 1 C2 2.98 2 4.96 2 7 C1.34 7 0.68 7 0 7 C-0.1546875 8.670625 -0.1546875 8.670625 -0.3125 10.375 C-0.929197 15.43554302 -2.42506148 20.16622643 -4 25 C-4.66 25 -5.32 25 -6 25 C-6 26.32 -6 27.64 -6 29 C-6.99 29.33 -7.98 29.66 -9 30 C-8.82041748 29.47865479 -8.64083496 28.95730957 -8.45581055 28.42016602 C-6.38168954 22.31024324 -4.56259363 16.14709149 -2.8125 9.9375 C-2.53986328 8.97650391 -2.26722656 8.01550781 -1.98632812 7.02539062 C-1.32238201 4.68410697 -0.66030709 2.34231204 0 0 Z " fill="#254C96" transform="translate(577,662)"/>
<path d="M0 0 C0.33 0 0.66 0 1 0 C1.31453125 1.19496094 1.6290625 2.38992188 1.953125 3.62109375 C4.12491728 11.73229914 6.34143465 19.41186445 10 27 C10 27.66 10 28.32 10 29 C8.171875 28.52734375 8.171875 28.52734375 6 27 C4.73291519 24.28692048 4.00893124 21.45264382 3.25 18.5625 C3.02957031 17.78583984 2.80914062 17.00917969 2.58203125 16.20898438 C1.6931805 13.00415296 1 10.34642022 1 7 C0.34 7 -0.32 7 -1 7 C-1.04254356 5.00045254 -1.04080783 2.99958364 -1 1 C-0.67 0.67 -0.34 0.34 0 0 Z " fill="#214994" transform="translate(354,597)"/>
<path d="M0 0 C0.33 0.66 0.66 1.32 1 2 C-18.07389635 4.84836852 -18.07389635 4.84836852 -24 4 C-24.66 3.34 -25.32 2.68 -26 2 C-17.24996282 0.3960652 -8.89252296 -0.26197285 0 0 Z " fill="#0D3B96" transform="translate(716,467)"/>
<path d="M0 0 C0.72750788 1.40691607 1.43140353 2.82606022 2.125 4.25 C2.51945312 5.03890625 2.91390625 5.8278125 3.3203125 6.640625 C4 9 4 9 3.1171875 11.296875 C2.56417969 12.13992188 2.56417969 12.13992188 2 13 C1.74605469 12.28972656 1.49210937 11.57945312 1.23046875 10.84765625 C0.88628906 9.92855469 0.54210937 9.00945313 0.1875 8.0625 C-0.14894531 7.14597656 -0.48539062 6.22945312 -0.83203125 5.28515625 C-1.83409094 2.6659576 -1.83409094 2.6659576 -5 2 C-6.66842534 2.32441604 -8.33480481 2.65939189 -10 3 C-16.496 3.336 -16.496 3.336 -20 1 C-13.30386804 0.202163 -6.74233419 -0.12910853 0 0 Z " fill="#184092" transform="translate(505,514)"/>
<path d="M0 0 C6.78517275 5.55150497 12.8492948 11.76836447 19 18 C19.99895013 19.00104877 20.99828621 20.00171673 22 21 C17.25 19.125 17.25 19.125 15 18 C15 17.34 15 16.68 15 16 C14.34 16 13.68 16 13 16 C13 15.34 13 14.68 13 14 C12.34 14 11.68 14 11 14 C11 13.34 11 12.68 11 12 C10.195625 11.7525 9.39125 11.505 8.5625 11.25 C7.716875 10.8375 6.87125 10.425 6 10 C5.6278958 8.67696283 5.29369827 7.34262065 5 6 C4.34 5.67 3.68 5.34 3 5 C2.34 4.67 1.68 4.34 1 4 C0.375 1.9375 0.375 1.9375 0 0 Z " fill="#174191" transform="translate(392,669)"/>
<path d="M0 0 C3 1 3 1 4.1875 2.875 C5 5 5 5 5 8 C5.66 8 6.32 8 7 8 C7.4125 8.86625 7.825 9.7325 8.25 10.625 C9.92045049 14.0412479 9.92045049 14.0412479 12.1875 17.0625 C14.07336634 20.11890406 14.41189904 21.49885815 14 25 C10.67066816 20.69806123 8.03168839 16.07656444 5.3125 11.375 C4.80138672 10.50359375 4.29027344 9.6321875 3.76367188 8.734375 C3.28091797 7.90164063 2.79816406 7.06890625 2.30078125 6.2109375 C1.85903564 5.45087402 1.41729004 4.69081055 0.9621582 3.90771484 C0 2 0 2 0 0 Z " fill="#194392" transform="translate(435,293)"/>
<path d="M0 0 C0.33 1.32 0.66 2.64 1 4 C-10.14285714 14 -10.14285714 14 -16 14 C-16 14.66 -16 15.32 -16 16 C-17.32 15.67 -18.64 15.34 -20 15 C-18.96552734 14.38125 -18.96552734 14.38125 -17.91015625 13.75 C-11.33787428 9.71106677 -5.58923253 5.31322105 0 0 Z " fill="#214792" transform="translate(801,475)"/>
<path d="M0 0 C0.66 0 1.32 0 2 0 C2 0.66 2 1.32 2 2 C2.99 2.33 3.98 2.66 5 3 C5 3.66 5 4.32 5 5 C5.66 5 6.32 5 7 5 C7.33 6.32 7.66 7.64 8 9 C8.66 9 9.32 9 10 9 C10.66 10.65 11.32 12.3 12 14 C12.66 14 13.32 14 14 14 C14.268125 14.598125 14.53625 15.19625 14.8125 15.8125 C15.8694745 18.05510787 15.8694745 18.05510787 17.6875 19.5 C18.120625 19.995 18.55375 20.49 19 21 C18.58203125 23.09375 18.58203125 23.09375 18 25 C17.45472656 24.18917969 16.90945313 23.37835938 16.34765625 22.54296875 C11.7408045 15.75782694 6.95134195 9.31509168 1.65234375 3.046875 C0 1 0 1 0 0 Z " fill="#1B438D" transform="translate(789,306)"/>
<path d="M0 0 C0.66 0 1.32 0 2 0 C5 5.75 5 5.75 5 8 C5.66 8 6.32 8 7 8 C10 14.75 10 14.75 10 17 C10.66 17 11.32 17 12 17 C14.10865385 20.47307692 14.10865385 20.47307692 13.55859375 23.140625 C13.28208984 24.06101562 13.28208984 24.06101562 13 25 C10.82642556 21.21225306 8.6623228 17.41917971 6.5 13.625 C5.87996094 12.54476562 5.25992187 11.46453125 4.62109375 10.3515625 C4.03457031 9.3203125 3.44804687 8.2890625 2.84375 7.2265625 C2.02680664 5.79691162 2.02680664 5.79691162 1.19335938 4.33837891 C0 2 0 2 0 0 Z " fill="#1D4592" transform="translate(401,233)"/>
<path d="M0 0 C-1.53218685 3.63061667 -3.7183144 5.9863773 -6.5 8.75 C-7.69109375 9.94882812 -7.69109375 9.94882812 -8.90625 11.171875 C-11 13 -11 13 -13 13 C-12.46348047 8.96685318 -10.45798792 7.05548319 -7.625 4.25 C-6.83351563 3.45078125 -6.04203125 2.6515625 -5.2265625 1.828125 C-3 0 -3 0 0 0 Z " fill="#113E96" transform="translate(417,540)"/>
<path d="M0 0 C0.33 0 0.66 0 1 0 C1 2.31 1 4.62 1 7 C0.67 7 0.34 7 0 7 C-1.34387477 17.65966683 -2.40652032 28.27051213 -3 39 C-3.33 39 -3.66 39 -4 39 C-4.21897528 30.1801623 -4.01978236 21.52888466 -3.125 12.75 C-3.04652832 11.94071045 -2.96805664 11.1314209 -2.88720703 10.29760742 C-2.4690624 6.49538053 -2.10849465 3.2956303 0 0 Z " fill="#0A3C9F" transform="translate(565,298)"/>
<path d="M0 0 C-3.27631545 3.27631545 -7.03943556 2.99408208 -11.52685547 3.02172852 C-12.79416504 2.97459717 -14.06147461 2.92746582 -15.3671875 2.87890625 C-16.04677521 2.85529526 -16.72636292 2.83168427 -17.42654419 2.80735779 C-19.5762779 2.73138273 -21.72558937 2.64707883 -23.875 2.5625 C-25.34112585 2.50921284 -26.80727169 2.45647301 -28.2734375 2.40429688 C-31.84921152 2.27585887 -35.42465607 2.13995444 -39 2 C-39 1.67 -39 1.34 -39 1 C-34.73166324 0.85588231 -30.46327202 0.71353511 -26.19482422 0.57275391 C-24.74591519 0.52472555 -23.29702149 0.4762324 -21.84814453 0.42724609 C-19.75296934 0.35649242 -17.6577428 0.28746898 -15.5625 0.21875 C-13.67724609 0.1559082 -13.67724609 0.1559082 -11.75390625 0.09179688 C-7.83289161 -0.00408642 -3.92196117 -0.0152014 0 0 Z " fill="#D0E4FB" transform="translate(692,472)"/>
<path d="M0 0 C1.8359375 0.546875 1.8359375 0.546875 4 2 C5.06251508 4.45376411 5.88205037 6.70344239 6.625 9.25 C6.82867188 9.90613281 7.03234375 10.56226563 7.2421875 11.23828125 C7.83698693 13.15612815 8.41866324 15.07802949 9 17 C9.39960937 18.06734375 9.79921875 19.1346875 10.2109375 20.234375 C11.04253827 23.14909454 10.84345801 24.19447121 10 27 C8.51993998 23.06283522 7.04110503 19.12521141 5.5625 15.1875 C5.14162109 14.06794922 4.72074219 12.94839844 4.28710938 11.79492188 C3.88427734 10.72177734 3.48144531 9.64863281 3.06640625 8.54296875 C2.69459229 7.55321045 2.32277832 6.56345215 1.93969727 5.54370117 C1.26127575 3.70725695 0.61909475 1.85728426 0 0 Z " fill="#DAECFA" transform="translate(509,525)"/>
<path d="M0 0 C4.1272426 3.7687516 6.49897681 8.69856467 9.25 13.5 C9.8171875 14.46292969 10.384375 15.42585938 10.96875 16.41796875 C11.49984375 17.34222656 12.0309375 18.26648438 12.578125 19.21875 C13.06700195 20.06373047 13.55587891 20.90871094 14.05957031 21.77929688 C15 24 15 24 14 27 C12.17574689 24.26362034 10.62011544 21.51828058 9.0625 18.625 C7.12438291 15.02634781 5.10873655 11.50096869 3 8 C0 2.33333333 0 2.33333333 0 0 Z " fill="#22478F" transform="translate(421,357)"/>
<path d="M0 0 C0.99 0 1.98 0 3 0 C4.60546875 1.86328125 4.60546875 1.86328125 6.1875 4.3125 C6.71730469 5.11300781 7.24710938 5.91351562 7.79296875 6.73828125 C9 9 9 9 9 12 C9.99 12.33 10.98 12.66 12 13 C13.25 14.875 13.25 14.875 14 17 C13.67 17.99 13.34 18.98 13 20 C10.8295946 16.85673081 8.66430763 13.70997025 6.5 10.5625 C5.87996094 9.66466797 5.25992188 8.76683594 4.62109375 7.84179688 C4.03457031 6.98779297 3.44804688 6.13378906 2.84375 5.25390625 C2.02680664 4.06776733 2.02680664 4.06776733 1.19335938 2.85766602 C0 1 0 1 0 0 Z " fill="#204792" transform="translate(756,635)"/>
<path d="M0 0 C2.97 0 5.94 0 9 0 C9 0.33 9 0.66 9 1 C6.69 1.66 4.38 2.32 2 3 C2.51691406 3.83144531 3.03382813 4.66289063 3.56640625 5.51953125 C4.22511719 6.60621094 4.88382813 7.69289063 5.5625 8.8125 C6.55443359 10.43091797 6.55443359 10.43091797 7.56640625 12.08203125 C9 15 9 15 8 18 C4 13.5 4 13.5 4 9 C3.34 9 2.68 9 2 9 C0.50178941 5.62902617 0 3.79557881 0 0 Z " fill="#164195" transform="translate(635,528)"/>
<path d="M0 0 C0 0.33 0 0.66 0 1 C-6.66957927 2.64006048 -13.15182898 3.51358785 -20 4 C-20 3.34 -20 2.68 -20 2 C-12.84968433 -0.36561846 -7.44613143 -1.34274501 0 0 Z " fill="#153F95" transform="translate(743,509)"/>
<path d="M0 0 C8.25 0 16.5 0 25 0 C25 0.33 25 0.66 25 1 C14.11 1.495 14.11 1.495 3 2 C3.33 4.31 3.66 6.62 4 9 C1.25000973 5.77175056 0.89570311 4.47851553 0 0 Z " fill="#AEC7EC" transform="translate(547,469)"/>
<path d="M0 0 C3.31860439 4.97790658 3.12977499 9.39190095 3.0625 15.25 C3.05798828 15.99507813 3.05347656 16.74015625 3.04882812 17.5078125 C3.03709246 19.3385764 3.0191585 21.16929873 3 23 C2.67 23 2.34 23 2 23 C0.64290496 15.26940505 -0.31918373 7.85546636 0 0 Z " fill="#D2E4F5" transform="translate(564,339)"/>
<path d="M0 0 C1.2984082 0.08507812 1.2984082 0.08507812 2.62304688 0.171875 C4.7286545 0.3114733 6.83322396 0.46659061 8.9375 0.625 C8.9375 0.955 8.9375 1.285 8.9375 1.625 C-0.41059779 2.28933182 -9.68372392 2.7848655 -19.0625 2.625 C-19.0625 2.295 -19.0625 1.965 -19.0625 1.625 C-12.51596697 -0.20189342 -6.75308741 -0.52390127 0 0 Z " fill="#144198" transform="translate(495.0625,457.375)"/>
<path d="M0 0 C0.66 0.33 1.32 0.66 2 1 C-0.89066059 13.66970387 -0.89066059 13.66970387 -4 19 C-4.66 18.67 -5.32 18.34 -6 18 C-4.02 12.06 -2.04 6.12 0 0 Z " fill="#1F458F" transform="translate(829,427)"/>
<path d="M0 0 C6.97669157 -0.39325819 12.51656189 0.36903961 19 3 C19 3.33 19 3.66 19 4 C12.07 3.505 12.07 3.505 5 3 C5 2.67 5 2.34 5 2 C3.35 1.67 1.7 1.34 0 1 C0 0.67 0 0.34 0 0 Z " fill="#214B9E" transform="translate(658,232)"/>
<path d="M0 0 C0 3.71946442 -0.88871542 4.40514236 -3.3125 7.125 C-3.92738281 7.82882812 -4.54226563 8.53265625 -5.17578125 9.2578125 C-7 11 -7 11 -10 12 C-10 12.66 -10 13.32 -10 14 C-10.66 13.67 -11.32 13.34 -12 13 C-8.13635705 8.51282966 -4.25209792 4.12324647 0 0 Z " fill="#DCEDFB" transform="translate(382,511)"/>
<path d="M0 0 C-2.2898234 1.0044134 -4.5816599 2.00367612 -6.875 3 C-7.52597656 3.28617187 -8.17695313 3.57234375 -8.84765625 3.8671875 C-13.7734375 6 -13.7734375 6 -16 6 C-15.07011275 3.67528188 -14.3827544 2.26934569 -12.3125 0.8125 C-8.04765112 -0.68596042 -4.32515314 -1.44171771 0 0 Z " fill="#1A4394" transform="translate(430,485)"/>
<path d="M0 0 C0.99 0.33 1.98 0.66 3 1 C2.278125 1.70125 1.55625 2.4025 0.8125 3.125 C-1.1713162 5.0975124 -2.98317739 7.14389266 -4.75 9.3125 C-5.86375 10.6428125 -5.86375 10.6428125 -7 12 C-7.33 12 -7.66 12 -8 12 C-8 10.35 -8 8.7 -8 7 C-7.01 7 -6.02 7 -5 7 C-4.9175 6.401875 -4.835 5.80375 -4.75 5.1875 C-3.77590452 2.34638817 -2.59505753 1.45017921 0 0 Z " fill="#1E4898" transform="translate(593,250)"/>
<path d="M0 0 C-1.1809082 1.49536133 -1.1809082 1.49536133 -3 3 C-5.36010742 3.2487793 -5.36010742 3.2487793 -8.10546875 3.07421875 C-9.08837891 3.01943359 -10.07128906 2.96464844 -11.08398438 2.90820312 C-12.10814453 2.83537109 -13.13230469 2.76253906 -14.1875 2.6875 C-15.22326172 2.62626953 -16.25902344 2.56503906 -17.32617188 2.50195312 C-19.88531957 2.34864013 -22.44267045 2.1807893 -25 2 C-25 1.67 -25 1.34 -25 1 C-22.33349537 0.83031334 -19.66684474 0.66418179 -17 0.5 C-16.25621094 0.45230469 -15.51242187 0.40460937 -14.74609375 0.35546875 C-9.82037776 0.05564256 -4.93485224 -0.04486229 0 0 Z " fill="#1D4BA6" transform="translate(617,514)"/>
<path d="M0 0 C0.33 0.66 0.66 1.32 1 2 C0.00390625 4.1640625 0.00390625 4.1640625 -1.4375 6.625 C-1.91058594 7.44226563 -2.38367188 8.25953125 -2.87109375 9.1015625 C-3.24363281 9.72804688 -3.61617187 10.35453125 -4 11 C-4.66 11 -5.32 11 -6 11 C-6.12375 11.639375 -6.2475 12.27875 -6.375 12.9375 C-6.58125 13.618125 -6.7875 14.29875 -7 15 C-7.99 15.495 -7.99 15.495 -9 16 C-9.33 15.01 -9.66 14.02 -10 13 C-8.671875 11.1328125 -8.671875 11.1328125 -6.75 9.125 C-4.07718558 6.23345227 -1.85941023 3.50006632 0 0 Z " fill="#234A97" transform="translate(567,692)"/>
<path d="M0 0 C2.3125 0.5625 2.3125 0.5625 5 2 C6.6875 5.4375 6.6875 5.4375 8 9 C8.99 10.485 8.99 10.485 10 12 C9.625 14.1875 9.625 14.1875 9 16 C7.49734474 13.5224077 5.99777081 11.04304235 4.5 8.5625 C4.07074219 7.85544922 3.64148438 7.14839844 3.19921875 6.41992188 C0 1.11328125 0 1.11328125 0 0 Z " fill="#DBEDFA" transform="translate(640,537)"/>
<path d="M0 0 C0 0.66 0 1.32 0 2 C-4.55491614 4.20399168 -9.02906176 4.58846263 -14 5 C-14.33 4.34 -14.66 3.68 -15 3 C-13.25183142 2.49363393 -11.50137737 1.99515381 -9.75 1.5 C-8.77546875 1.2215625 -7.8009375 0.943125 -6.796875 0.65625 C-4 0 -4 0 0 0 Z " fill="#214996" transform="translate(467,519)"/>
<path d="M0 0 C0.66 0.33 1.32 0.66 2 1 C2.59355614 3.64860427 2.74209269 6.29197322 3 9 C3.33 9 3.66 9 4 9 C4 11.64 4 14.28 4 17 C1.81102745 13.71654118 1.18287663 11.20465719 0.3125 7.375 C0.04050781 6.20710937 -0.23148437 5.03921875 -0.51171875 3.8359375 C-0.75341797 2.43214844 -0.75341797 2.43214844 -1 1 C-0.67 0.67 -0.34 0.34 0 0 Z " fill="#194294" transform="translate(397,585)"/>
<path d="M0 0 C-3.70416126 2.37590142 -6.92984573 2.20500286 -11.25 2.125 C-12.51328125 2.10695313 -13.7765625 2.08890625 -15.078125 2.0703125 C-16.04234375 2.04710937 -17.0065625 2.02390625 -18 2 C-18 1.67 -18 1.34 -18 1 C-16.12739946 0.63335815 -14.25175307 0.28225634 -12.375 -0.0625 C-11.33085937 -0.25972656 -10.28671875 -0.45695313 -9.2109375 -0.66015625 C-5.89522371 -1.01108946 -3.24598855 -0.6969615 0 0 Z " fill="#284E9C" transform="translate(485,517)"/>
<path d="M0 0 C1.87560856 2.81341284 3.03975986 5.2968416 4.25 8.4375 C4.62640625 9.38496094 5.0028125 10.33242188 5.390625 11.30859375 C6 14 6 14 5.109375 16.34765625 C4.74328125 16.89292969 4.3771875 17.43820312 4 18 C3.32451422 15.94037148 2.65995688 13.87715678 2 11.8125 C1.62875 10.66394531 1.2575 9.51539063 0.875 8.33203125 C0.09369447 5.35679188 -0.18363306 3.04716104 0 0 Z " fill="#2A5199" transform="translate(579,413)"/>
<path d="M0 0 C5.00099548 2.65848126 9.7045025 5.25876024 14 9 C8.58961609 8.59422121 4.07142845 6.57541686 0 3 C0 2.01 0 1.02 0 0 Z " fill="#204894" transform="translate(427,700)"/>
<path d="M0 0 C0.66 0 1.32 0 2 0 C3.44074715 1.782129 4.80510649 3.62660276 6.125 5.5 C7.21167969 7.03140625 7.21167969 7.03140625 8.3203125 8.59375 C8.87460937 9.3878125 9.42890625 10.181875 10 11 C9.34 11.66 8.68 12.32 8 13 C6.66094733 11.2126038 5.32890934 9.41995047 4 7.625 C3.2575 6.62726562 2.515 5.62953125 1.75 4.6015625 C0 2 0 2 0 0 Z " fill="#1C4491" transform="translate(805,703)"/>
<path d="M0 0 C3.95829688 -0.22822613 6.67851541 0.44949991 10.3125 2 C11.19550781 2.37125 12.07851563 2.7425 12.98828125 3.125 C13.65214844 3.41375 14.31601562 3.7025 15 4 C11.34142468 5.31534494 8.91973519 4.65468309 5.25 3.5625 C3.77273438 3.13130859 3.77273438 3.13130859 2.265625 2.69140625 C1.51796875 2.46324219 0.7703125 2.23507812 0 2 C0 1.34 0 0.68 0 0 Z " fill="#284F98" transform="translate(481,679)"/>
<path d="M0 0 C0.66 0 1.32 0 2 0 C2 0.66 2 1.32 2 2 C2.66 2 3.32 2 4 2 C8.42857143 9.28571429 8.42857143 9.28571429 9 14 C6.14015453 11.48367951 4.58531178 8.66114447 2.8125 5.3125 C2.28269531 4.31863281 1.75289062 3.32476562 1.20703125 2.30078125 C0.60955078 1.16189453 0.60955078 1.16189453 0 0 Z " fill="#173F8F" transform="translate(808,331)"/>
<path d="M0 0 C3.47775179 1.51553404 5.9557984 3.5773456 8.75 6.125 C9.94882812 7.21167969 9.94882812 7.21167969 11.171875 8.3203125 C11.77515625 8.87460937 12.3784375 9.42890625 13 10 C12.67 10.99 12.34 11.98 12 13 C9.99698146 11.0238076 7.99750133 9.04425526 6 7.0625 C5.42765625 6.49853516 4.8553125 5.93457031 4.265625 5.35351562 C2.82474495 3.92121224 1.41012857 2.46258871 0 1 C0 0.67 0 0.34 0 0 Z " fill="#1A408A" transform="translate(770,287)"/>
<path d="M0 0 C0.66 0 1.32 0 2 0 C2 0.99 2 1.98 2 3 C2.66 3 3.32 3 4 3 C6.15305957 6.85756507 7.39253254 9.55129785 7 14 C4.60926851 11.06810006 3.15892693 8.27856712 1.8125 4.75 C1.46832031 3.85796875 1.12414062 2.9659375 0.76953125 2.046875 C0.51558594 1.37140625 0.26164062 0.6959375 0 0 Z " fill="#1D4591" transform="translate(401,603)"/>
<path d="M0 0 C2.09715785 3.14573677 2.52004559 5.01456251 3.125 8.6875 C3.29257812 9.68136719 3.46015625 10.67523437 3.6328125 11.69921875 C3.75398437 12.45847656 3.87515625 13.21773437 4 14 C3.01 14.495 3.01 14.495 2 15 C0.53329887 9.77487721 -0.22577402 5.4185766 0 0 Z " fill="#2D5298" transform="translate(526,573)"/>
<path d="M0 0 C1.485 0.99 1.485 0.99 3 2 C3.56737589 9.14893617 3.56737589 9.14893617 1 13 C0.67 8.71 0.34 4.42 0 0 Z " fill="#214BA0" transform="translate(533,613)"/>
<path d="M0 0 C1.98012969 2.97019453 3.6501925 5.69297163 5 9 C4.078125 11.19140625 4.078125 11.19140625 3 13 C2.73445313 12.30132813 2.46890625 11.60265625 2.1953125 10.8828125 C1.84210938 9.97273437 1.48890625 9.06265625 1.125 8.125 C0.77695312 7.22007812 0.42890625 6.31515625 0.0703125 5.3828125 C-0.88530895 2.87782993 -0.88530895 2.87782993 -3 1 C-2.01 0.67 -1.02 0.34 0 0 Z " fill="#1F4795" transform="translate(504,514)"/>
<path d="M0 0 C-1 2 -1 2 -2.765625 2.62109375 C-5.14150323 3.02399618 -7.34179517 3.09791478 -9.75 3.0625 C-10.54921875 3.05347656 -11.3484375 3.04445313 -12.171875 3.03515625 C-12.77515625 3.02355469 -13.3784375 3.01195312 -14 3 C-5.02487136 -1.67495712 -5.02487136 -1.67495712 0 0 Z " fill="#294E99" transform="translate(752,505)"/>
<path d="M0 0 C0.33 0 0.66 0 1 0 C2.03590199 5.05002222 2.10251672 9.87416389 2 15 C1.34 14.67 0.68 14.34 0 14 C-1.10850248 9.33465044 -1.34383934 4.62877994 0 0 Z " fill="#184297" transform="translate(831,380)"/>
<path d="M0 0 C0.66 0 1.32 0 2 0 C2.99 3.63 3.98 7.26 5 11 C4.34 11.66 3.68 12.32 3 13 C2.49487756 11.39743892 1.99608373 9.79288208 1.5 8.1875 C1.2215625 7.29417969 0.943125 6.40085937 0.65625 5.48046875 C0 3 0 3 0 0 Z " fill="#294F9B" transform="translate(519,554)"/>
<path d="M0 0 C0.66 1.32 1.32 2.64 2 4 C-4.6 4 -11.2 4 -18 4 C-18 3.67 -18 3.34 -18 3 C-9.585 2.505 -9.585 2.505 -1 2 C-0.67 1.34 -0.34 0.68 0 0 Z " fill="#0E3A8D" transform="translate(599,466)"/>
<path d="M0 0 C3.86933162 0.57323431 6.15222057 2.38953552 9 5 C9 5.66 9 6.32 9 7 C9.66 7 10.32 7 11 7 C10.67 7.99 10.34 8.98 10 10 C6.66666667 6.66666667 3.33333333 3.33333333 0 0 Z " fill="#E1F1FB" transform="translate(740,318)"/>
<path d="M0 0 C0.66 0 1.32 0 2 0 C1.34 1.32 0.68 2.64 0 4 C-0.33 3.34 -0.66 2.68 -1 2 C-0.67 1.34 -0.34 0.68 0 0 Z M-4 4 C-3.01 4.33 -2.02 4.66 -1 5 C-1.99 5.66 -2.98 6.32 -4 7 C-4 6.01 -4 5.02 -4 4 Z M-7 7 C-6.34 7.66 -5.68 8.32 -5 9 C-6.65 10.32 -8.3 11.64 -10 13 C-8.125 8.125 -8.125 8.125 -7 7 Z " fill="#0B3DA0" transform="translate(626,283)"/>
<path d="M0 0 C0.8125 1.625 0.8125 1.625 1 4 C-0.45145896 6.29767635 -2.10430963 8.01403866 -4 10 C-4.33 10 -4.66 10 -5 10 C-5 8.35 -5 6.7 -5 5 C-4.34 5 -3.68 5 -3 5 C-2.67 4.01 -2.34 3.02 -2 2 C-1.34 2 -0.68 2 0 2 C0 1.34 0 0.68 0 0 Z " fill="#164297" transform="translate(778,433)"/>
<path d="M0 0 C0.33 0 0.66 0 1 0 C1.22331199 1.58129029 1.42804644 3.16521089 1.625 4.75 C1.74101563 5.63171875 1.85703125 6.5134375 1.9765625 7.421875 C2.00207817 10.22859878 1.44843844 11.63384866 0 14 C-0.33 14 -0.66 14 -1 14 C-1.08333357 9.1666528 -0.95261487 4.76307437 0 0 Z " fill="#CDE0F4" transform="translate(565,308)"/>
<path d="M0 0 C8 0.92307692 8 0.92307692 11 3 C11.33 3.99 11.66 4.98 12 6 C7.76570244 4.68938409 3.92592596 3.05643741 0 1 C0 0.67 0 0.34 0 0 Z " fill="#CFE2F2" transform="translate(691,286)"/>
<path d="M0 0 C4.04648443 1.34882814 4.95502599 3.34826069 7 7 C6.67 7.99 6.34 8.98 6 10 C3.25722422 6.80009492 1.3697164 3.99500618 0 0 Z " fill="#1B4595" transform="translate(707,562)"/>
<path d="M0 0 C0.99 0 1.98 0 3 0 C6.22265625 5.17578125 6.22265625 5.17578125 7 7 C6.67 7.99 6.34 8.98 6 10 C4.99723227 8.52270825 3.99785546 7.04311423 3 5.5625 C2.443125 4.73878906 1.88625 3.91507813 1.3125 3.06640625 C0 1 0 1 0 0 Z " fill="#1C4494" transform="translate(700,552)"/>
<path d="M0 0 C0.33 1.32 0.66 2.64 1 4 C-0.65 5.32 -2.3 6.64 -4 8 C-4.66 7.34 -5.32 6.68 -6 6 C-4.02 4.02 -2.04 2.04 0 0 Z " fill="#174092" transform="translate(801,475)"/>
<path d="M0 0 C3.32643967 2.98232523 5.29152862 5.86370087 7 10 C6.67 10.66 6.34 11.32 6 12 C1.60694237 9.07129491 1.14478372 4.96072944 0 0 Z " fill="#18418C" transform="translate(391,304)"/>
<path d="M0 0 C0.33 0.66 0.66 1.32 1 2 C0.67 2.66 0.34 3.32 0 4 C-0.99 4 -1.98 4 -3 4 C-3.33 5.32 -3.66 6.64 -4 8 C-5.32 7.67 -6.64 7.34 -8 7 C-5.36 4.69 -2.72 2.38 0 0 Z " fill="#294D94" transform="translate(625,283)"/>
<path d="M0 0 C0.99 0 1.98 0 3 0 C4.421875 1.64453125 4.421875 1.64453125 5.75 3.8125 C6.19859375 4.52019531 6.6471875 5.22789062 7.109375 5.95703125 C8 8 8 8 7 11 C4.69 7.37 2.38 3.74 0 0 Z " fill="#D2E6F7" transform="translate(756,710)"/>
<path d="M0 0 C0.66 0 1.32 0 2 0 C2 0.66 2 1.32 2 2 C2.99 2.33 3.98 2.66 5 3 C6.75 5.9375 6.75 5.9375 8 9 C7.67 9.66 7.34 10.32 7 11 C5.83051998 9.35616456 4.6644855 7.70987731 3.5 6.0625 C2.8503125 5.14597656 2.200625 4.22945312 1.53125 3.28515625 C0 1 0 1 0 0 Z " fill="#1F458F" transform="translate(747,622)"/>
<path d="M0 0 C0.66 0.33 1.32 0.66 2 1 C0.93283928 2.20205464 -0.15438337 3.38632333 -1.25 4.5625 C-2.15492188 5.55443359 -2.15492188 5.55443359 -3.078125 6.56640625 C-3.71234375 7.03949219 -4.3465625 7.51257813 -5 8 C-6.32 7.67 -7.64 7.34 -9 7 C-6.03 4.69 -3.06 2.38 0 0 Z " fill="#DCEDFA" transform="translate(392,503)"/>
<path d="M0 0 C3 1 3 1 4.6875 3.8125 C6 7 6 7 6 11 C0 3.28571429 0 3.28571429 0 0 Z " fill="#204893" transform="translate(449,318)"/>
<path d="M0 0 C0.66 0 1.32 0 2 0 C2 0.66 2 1.32 2 2 C2.66 2 3.32 2 4 2 C4.33 3.32 4.66 4.64 5 6 C5.66 6 6.32 6 7 6 C6.67 7.32 6.34 8.64 6 10 C4.99723227 8.52270825 3.99785546 7.04311423 3 5.5625 C2.443125 4.73878906 1.88625 3.91507813 1.3125 3.06640625 C0 1 0 1 0 0 Z " fill="#1B4391" transform="translate(408,617)"/>
<path d="M0 0 C2.64 0 5.28 0 8 0 C8.33 0.66 8.66 1.32 9 2 C4.545 2.495 4.545 2.495 0 3 C0 2.01 0 1.02 0 0 Z " fill="#214998" transform="translate(708,467)"/>
<path d="M0 0 C0.66 0 1.32 0 2 0 C2.33 2.97 2.66 5.94 3 9 C2.01 8.34 1.02 7.68 0 7 C-0.1875 3.375 -0.1875 3.375 0 0 Z " fill="#0F3D95" transform="translate(565,366)"/>
<path d="M0 0 C0.66 0.33 1.32 0.66 2 1 C-1.17320782 4.53586014 -3.16743695 6.58578031 -8 7 C-5.42215154 4.35247996 -3.08351902 2.05567935 0 0 Z " fill="#DAEAF9" transform="translate(604,245)"/>
<path d="M0 0 C2.475 0.495 2.475 0.495 5 1 C5 1.66 5 2.32 5 3 C6.32 3.33 7.64 3.66 9 4 C8.67 4.99 8.34 5.98 8 7 C6.66382648 6.02471263 5.3311249 5.04466681 4 4.0625 C3.2575 3.51722656 2.515 2.97195313 1.75 2.41015625 C1.1725 1.94480469 0.595 1.47945312 0 1 C0 0.67 0 0.34 0 0 Z " fill="#D3E6F7" transform="translate(420,694)"/>
<path d="M0 0 C0.33 0 0.66 0 1 0 C1 1.65 1 3.3 1 5 C0.34 5 -0.32 5 -1 5 C-1 6.32 -1 7.64 -1 9 C-1.99 9.33 -2.98 9.66 -4 10 C-3.52449439 8.51965236 -3.04448784 7.04074979 -2.5625 5.5625 C-2.29566406 4.73878906 -2.02882813 3.91507813 -1.75390625 3.06640625 C-1 1 -1 1 0 0 Z " fill="#19418F" transform="translate(572,682)"/>
<path d="M0 0 C1 2 1 2 0.3125 4.375 C-1.09398311 7.18796623 -2.67557877 8.9080209 -5 11 C-4.34 8.36 -3.68 5.72 -3 3 C-2.34 3 -1.68 3 -1 3 C-0.67 2.01 -0.34 1.02 0 0 Z " fill="#09399C" transform="translate(826,443)"/>
<path d="M0 0 C2 1 2 1 2.6328125 2.84765625 C2.79523437 3.57855469 2.95765625 4.30945313 3.125 5.0625 C3.29257812 5.79597656 3.46015625 6.52945312 3.6328125 7.28515625 C3.75398437 7.85105469 3.87515625 8.41695313 4 9 C3.01 9.495 3.01 9.495 2 10 C0.39644899 6.49223216 -0.22036864 3.85645121 0 0 Z " fill="#224993" transform="translate(575,403)"/>
<path d="M0 0 C3.7952131 1.49097658 5.61042731 3.75700849 8 7 C4.21388773 6.45912682 2.44599233 4.88277668 0 2 C0 1.34 0 0.68 0 0 Z " fill="#264B92" transform="translate(741,320)"/>
<path d="M0 0 C0.99 0 1.98 0 3 0 C3.33 1.32 3.66 2.64 4 4 C4.66 4 5.32 4 6 4 C5.67 5.32 5.34 6.64 5 8 C4.16382818 6.8562364 3.33113541 5.70992861 2.5 4.5625 C2.0359375 3.92441406 1.571875 3.28632812 1.09375 2.62890625 C0 1 0 1 0 0 Z " fill="#1F4896" transform="translate(723,587)"/>
<path d="M0 0 C0.99 0 1.98 0 3 0 C4.75 2.25 4.75 2.25 6 5 C5.67 6.32 5.34 7.64 5 9 C3.35 6.03 1.7 3.06 0 0 Z " fill="#1E468F" transform="translate(713,572)"/>
<path d="M0 0 C2.12046792 3.53411321 2.53199289 6.94393835 3 11 C2.34 11 1.68 11 1 11 C-0.28317892 7.15046324 -0.06643637 4.05261865 0 0 Z " fill="#284E95" transform="translate(572,390)"/>
<path d="M0 0 C2.17854707 3.2678206 3.49760034 6.38058265 5 10 C4.01 10.495 4.01 10.495 3 11 C0 4.5 0 4.5 0 0 Z " fill="#234A93" transform="translate(546,469)"/>
<path d="M0 0 C-1.32 0.33 -2.64 0.66 -4 1 C-4 1.66 -4 2.32 -4 3 C-6.64 3.33 -9.28 3.66 -12 4 C-7.47239812 0.98159875 -5.47631692 -0.24339186 0 0 Z " fill="#0F3A91" transform="translate(458,475)"/>
<path d="M0 0 C3 3 3 3 3.1875 5.6875 C3.0946875 6.8321875 3.0946875 6.8321875 3 8 C2.01 8.495 2.01 8.495 1 9 C0.67 6.03 0.34 3.06 0 0 Z " fill="#1E4695" transform="translate(613,373)"/>
<path d="M0 0 C0.6875 1.6875 0.6875 1.6875 1 4 C-0.3125 6.75 -0.3125 6.75 -2 9 C-2.66 9 -3.32 9 -4 9 C-2.94124926 5.59687262 -1.99097846 2.98646769 0 0 Z " fill="#DEEFFB" transform="translate(578,272)"/>
<path d="M0 0 C2.31 1.98 4.62 3.96 7 6 C6.01 6.495 6.01 6.495 5 7 C2.5 5.1875 2.5 5.1875 0 3 C0 2.01 0 1.02 0 0 Z " fill="#0F398B" transform="translate(392,669)"/>
<path d="M0 0 C4 2 4 2 6 5 C5.67 6.32 5.34 7.64 5 9 C3.35 6.03 1.7 3.06 0 0 Z " fill="#D2E4F5" transform="translate(371,639)"/>
<path d="M0 0 C0.33 0.99 0.66 1.98 1 3 C-0.8125 6.1875 -0.8125 6.1875 -3 9 C-3.66 9 -4.32 9 -5 9 C-3.7508258 5.54074837 -2.32472205 2.85306797 0 0 Z " fill="#D7E8F6" transform="translate(369,525)"/>
<path d="M0 0 C2.52259061 1.97420135 2.9929808 2.96745642 3.6875 6.1875 C3.790625 7.115625 3.89375 8.04375 4 9 C1.74754119 6.31158141 0.11786042 4.35358125 -1 1 C-0.67 0.67 -0.34 0.34 0 0 Z " fill="#1F4590" transform="translate(431,284)"/>
<path d="M0 0 C0.99 0.33 1.98 0.66 3 1 C2.67 1.66 2.34 2.32 2 3 C-0.64860427 3.59355614 -3.29197322 3.74209269 -6 4 C-4.03617993 2.49440461 -2.21736634 1.10868317 0 0 Z " fill="#1F458F" transform="translate(632,279)"/>
</svg>
